<?xml version="1.0" encoding="UTF-8"?><svg version="1.1" width="1047px" height="988px" viewBox="0 0 1047.0 988.0" xmlns="http://www.w3.org/2000/svg" xmlns:xlink="http://www.w3.org/1999/xlink"><defs><clipPath id="i0"><path d="M1440,0 L1440,4951 L0,4951 L0,0 L1440,0 Z"></path></clipPath><clipPath id="i1"><path d="M355.391483,0 C355.721483,0.28 356.061483,0.55 356.391483,0.83 L353.761483,5.18 C352.542483,7.0982 347.988667,12.615716 343.349111,18.0941283 L342.743732,18.808183 C337.497531,24.989552 332.322283,30.9188 331.911483,31.34 C321.471483,41.96 309.861483,51.16 297.251483,59.02 C289.221483,64.02 280.841483,68.46 272.621483,73.15 C271.231483,73.68 269.851483,74.22 268.461483,74.74 C257.261483,78.93 246.221483,83.61 234.831483,87.2 C216.191483,93.07 196.931483,95.57 177.421483,96.64 C150.871483,98.09 124.561483,96.4 98.4514834,91.56 C78.7914834,87.91 59.8014834,81.86 41.0414834,75 C28.2614834,70.33 15.5514834,65.35 2.09148339,62.83 C-0.408516612,62.36 -0.498516612,61.83 0.931483388,58.56 C1.36348339,58.554 1.79708339,58.5384 2.23140339,58.51928 L3.53564339,58.45744 C4.84028339,58.3972 6.14348339,58.36 7.42148339,58.51 C19.1514834,59.87 30.8814834,61.28 42.6014834,62.82 C55.4714834,64.51 68.2814834,66.82 81.1914834,68.03 C109.671483,70.7 138.161483,69.27 166.471483,65.88 C197.381483,62.17 228.091483,57.11 258.251483,49.19 C286.481483,41.78 313.051483,30.66 337.221483,14.1 C340.201483,12.06 342.621483,9.77 343.721483,6.26 C343.781483,6.06 344.131483,5.94 344.351483,5.78 L344.583939,6.15355281 C344.856545,6.59333333 345.142594,7.06 345.531483,7.69 C348.881483,5.08 352.131483,2.54 355.391483,0 Z"></path></clipPath><clipPath id="i2"><path d="M95.6890995,0.200601466 C96.1790995,0.710601466 96.7090995,1.76060147 96.4890995,2.26060147 C96.0490995,3.26060147 95.4624328,4.1939348 94.8565069,5.11986073 L94.24888,6.0455123 C94.1481118,6.20010764 94.0479884,6.35504591 93.9490995,6.51060147 C90.1090995,12.5306015 86.2690995,18.5306015 82.4190995,24.5506015 L79.5290995,29.5006015 C73.0990995,39.9106015 67.7290995,50.8506015 63.4790995,62.3306015 C63.2190995,63.0506015 62.9590995,63.7706015 62.7090995,64.5006015 C62.4890995,64.6306015 62.4390995,64.8106015 62.5590995,65.0406015 C61.8590995,66.5306015 61.0190995,67.9706015 60.4990995,69.5106015 C58.2990995,75.9606015 56.1190995,82.4306015 54.0490995,88.9206015 C44.8790995,117.780601 35.5490995,146.600601 30.0890995,176.470601 C26.0290995,198.670601 23.9590995,220.980601 26.4390995,243.560601 C29.7390995,273.540601 41.1690995,300.060601 60.0890995,323.400601 C73.1890995,339.560601 88.9690995,352.900601 105.459099,365.400601 C127.909099,382.410601 151.119099,398.330601 174.959099,413.310601 C205.649099,432.590601 237.779099,449.010601 272.459099,459.910601 C279.477849,462.116851 286.637224,463.873883 293.810271,465.591851 L298.114724,466.621226 C300.984099,467.308726 303.851599,468.003101 306.709099,468.730601 C316.839099,470.620601 326.909099,472.880601 337.099099,474.330601 C359.899099,477.570601 382.859099,478.700601 405.889099,478.370601 C417.189099,478.210601 428.479099,477.970601 439.779099,477.770601 C431.499099,479.590601 423.189099,481.250601 414.809099,482.330601 C400.109099,484.230601 385.369099,485.770601 370.649099,487.460601 C369.159099,487.450601 367.659099,487.340601 366.169099,487.440601 C345.859099,488.820601 325.569099,488.580601 305.309099,486.490601 C304.724099,486.430601 300.814099,486.015601 296.902849,485.586851 L296.094698,485.49806 C292.467747,485.098625 289.03841,484.70767 288.489099,484.600601 C280.899099,483.100601 273.239099,481.920601 265.279099,480.580601 C259.334816,479.265242 255.039099,477.940601 253.929099,477.650601 C225.149099,470.240601 197.639099,459.560601 171.229099,445.970601 C168.579099,444.610601 165.829099,443.440601 163.129099,442.190601 C161.309099,441.050601 159.529099,439.830601 157.649099,438.790601 C133.229099,425.420601 109.859099,410.410601 87.6790995,393.580601 C81.1890995,388.660601 74.9090995,383.470601 68.5290995,378.410601 C66.5190995,376.440601 64.5590995,374.410601 62.4890995,372.510601 C52.1390995,363.040601 42.5790995,352.820601 34.4290995,341.400601 C29.1290995,333.970601 24.4790995,326.060601 19.5290995,318.370601 C15.8990995,309.490601 11.9790995,300.710601 8.69909947,291.700601 C4.31909947,279.660601 2.39909947,267.010601 0.579099475,254.380601 C0.569099475,252.720601 0.669099475,251.050601 0.529099475,249.400601 C-0.480900525,237.240601 0,225.110601 1.58909947,213.050601 C2.79909947,203.830601 4.51909947,194.680601 6.00909947,185.490601 C8.41909947,176.860601 10.5290995,168.140601 13.2990995,159.630601 C17.6690995,146.210601 22.4890995,132.930601 27.1190995,119.590601 L28.6290995,113.310601 C29.5590995,112.030601 30.7790995,110.880601 31.3790995,109.460601 C35.2390995,100.260601 38.9990995,91.0206015 42.7290995,81.7706015 C54.4090995,52.7906015 70.7090995,26.6606015 91.1190995,3.05060147 C91.9790995,2.05060147 92.8990995,1.07060147 93.9290995,0.260601466 C94.3290995,-0.0493985338 95.3990995,-0.0993985338 95.6890995,0.200601466 Z"></path></clipPath><clipPath id="i3"><path d="M819.11945,0 L820.69945,0.31 C818.34945,2.9 815.97945,5.48 813.63945,8.07 L812.667931,9.14243511 L810.725385,11.2883554 C796.485774,27.0325939 782.420514,42.9761702 771.72945,61.4 C758.69945,83.84 746.01945,106.52 734.14945,129.59 C722.92945,151.39 714.47945,174.34 710.39945,198.7 C706.61945,221.23 706.02945,243.76 710.35945,266.26 C716.35945,297.39 730.69945,324.13 753.13945,346.53 L754.57945,347.26 L753.64945,344.89 C752.33945,342.33 751.02945,339.76 749.72945,337.2 C754.28945,336.22 759.19945,336.58 763.18945,337.98 C770.11945,340.4 776.78945,344.03 782.92945,348.12 C788.65945,351.93 793.55945,357 798.81945,361.51 C799.38945,363.16 799.68945,364.97 800.58945,366.43 C803.01945,370.39 805.96945,374.05 808.23945,378.1 C832.68945,421.68 854.50945,466.45 869.26945,514.35 C872.29945,524.18 874.58945,534.23 877.21945,544.17 C876.675006,544.383333 876.110314,544.571481 875.539752,544.752332 L874.252144,545.154477 C872.681117,545.649383 871.147228,546.190556 869.94945,547.15 C864.91945,551.2 859.84945,555.37 855.59945,560.2 C848.25945,568.54 841.23945,577.2 834.63945,586.14 C830.82945,591.31 828.09945,597.27 824.91945,602.9 C824.775604,603.154615 824.630456,603.408225 824.48493,603.661329 L823.830633,604.798578 C822.312542,607.452086 820.905604,610.132692 820.67945,613.42 C820.53945,615.45 819.22945,617.43 818.31945,619.38 C816.92945,622.36 815.38945,625.27 813.97945,628.25 C812.51945,631.35 811.15945,634.49 809.70945,637.6 C809.22945,638.64 808.46945,639.58 808.10945,640.66 C803.73945,653.75 799.04945,666.76 795.23945,680.02 C793.846593,684.862857 793.219042,689.935306 792.642511,695.011399 L792.412927,697.041496 C792.259428,698.394308 792.102784,699.745238 791.92945,701.09 C790.91945,709 790.15945,716.94 789.28945,724.86 C788.72945,729.99 788.32945,735.1 789.62945,740.2 C790.10945,742.1 790.48945,744.14 790.33945,746.07 C789.847036,752.594483 790.723243,758.982628 791.703602,765.359743 L792.126446,768.092482 C792.360806,769.610702 792.59083,771.12931 792.79945,772.65 C793.66945,779.01 795.01945,785.31 794.43945,792.13 C797.88945,792.38 800.21945,794.14 801.07945,797.61 C801.17945,798.03 801.72945,798.33 802.07945,798.69 C801.41945,799.42 800.80945,800.22 800.07945,800.88 C786.94945,812.69 772.84945,823.24 758.04945,832.85 C737.51945,846.17 715.79945,857.24 693.15945,866.51 C691.75945,867.06 690.34945,867.66 688.93945,868.26 L686.95945,868.14 L689.58945,863.79 L690.42945,862.32 L691.76945,860.82 L691.21945,860.25 L689.84945,861.72 C689.42945,862.13 689.00945,862.54 688.58945,862.96 C685.33945,865.5 682.07945,868.03 678.72945,870.65 C678.22945,869.85 677.89945,869.31 677.54945,868.74 C677.32945,868.9 676.98945,869.01 676.91945,869.22 C675.81945,872.73 673.39945,875.02 670.41945,877.06 C646.24945,893.62 619.67945,904.74 591.44945,912.15 C561.27945,920.07 530.56945,925.13 499.66945,928.84 C471.34945,932.24 442.86945,933.66 414.38945,930.99 C401.47945,929.78 388.66945,927.47 375.79945,925.78 C364.08945,924.24 352.35945,922.83 340.61945,921.47 C339.34145,921.32 338.04185,921.3572 336.73793,921.41744 L335.43321,921.47928 C334.99825,921.4984 334.56345,921.514 334.12945,921.52 C333.87945,919.69 332.94945,918.7 331.03945,918.24 C325.96945,917.03 320.93945,915.64 315.91945,914.23 C314.21945,913.75 312.58945,912.99 310.92945,912.36 C325.64945,910.67 340.38945,909.12 355.08945,907.23 C363.46945,906.15 371.77945,904.49 380.05945,902.67 C368.75945,902.87 357.46945,903.11 346.16945,903.27 C323.13945,903.6 300.17945,902.47 277.37945,899.23 C271.108681,898.337692 264.879569,897.138639 258.654826,895.907833 L253.986505,894.983072 C251.652172,894.522012 249.317143,894.066154 246.97945,893.63 C245.28945,889.88 241.59945,888.36 238.55945,886.15 C236.42014,884.598621 234.088035,883.365208 231.733407,882.164341 L230.447853,881.510835 C227.019212,879.76761 223.608416,877.983448 220.73945,875.28 C218.82945,873.48 216.69945,871.58 214.30945,870.69 C208.84945,868.64 204.85945,864.88 200.93945,860.84 C199.21945,859.06 197.25945,857.49 195.30945,855.96 C192.43945,853.72 189.11945,851.94 186.61945,849.36 C180.62945,843.18 173.69945,838 168.23945,831.24 C163.98945,825.97 158.99945,821.29 154.37945,816.31 C153.03445,814.86 151.70445,813.3975 150.37945,811.93 L146.40945,807.52 L143.370006,804.124398 L137.30445,797.31875 C134.26945,793.9175 131.22445,790.525 128.13945,787.17 C126.25195,785.116875 124.310739,783.109648 122.360983,781.110173 L120.020065,778.712083 C116.511208,775.113203 113.0332,771.49 109.84945,767.62 C100.88945,756.74 92.4894502,745.39 83.8794502,734.22 C82.2594502,732.12 80.6994502,729.96 79.2494502,727.73 C76.6494502,723.71 74.1394502,719.63 71.6194502,715.55 C68.3294502,710.24 65.0394502,704.92 61.8194502,699.57 C60.6294502,697.6 59.7194502,695.47 58.5494502,693.49 C54.3194502,686.39 50.0194502,679.33 45.7794502,672.24 C43.0694502,667.7 40.3994502,663.13 37.7294502,658.57 C35.4894502,654.75 32.8694502,651.09 31.1094502,647.06 C27.4794502,638.74 23.3794502,630.71 18.4194502,623.1 C16.0994502,619.53 13.9694502,615.81 12.0394502,612.02 C8.49945022,605.07 6.50945022,597.57 4.69945022,590.02 C4.19945022,587.93 2.66945022,585.53 3.25945022,583.84 C4.10973594,581.376 3.66852778,579.001861 3.12521815,576.652621 L2.91901407,575.772696 C2.33437267,573.282163 1.80230737,570.810571 2.74945022,568.28 C1.35945022,559.82 0.959450225,551.29 0.949450225,542.73 C0.949450225,539.94 0.339450225,537.15 0.119450225,534.36 C-0.0105497752,532.71 -0.0705497752,531.02 0.129450225,529.39 C0.281029172,528.154211 0.499976541,526.923296 0.73236027,525.693619 L1.08427163,523.849574 C1.83936712,519.854183 2.45155549,515.852632 1.06945022,511.72 C0.839450225,511.02 1.32945022,510.11 1.38945022,509.29 C1.87945022,502.85 2.33945022,496.41 2.80945022,489.97 C2.68945022,489.74 2.73945022,489.57 2.95945022,489.43 C3.21945022,488.71 3.47945022,487.99 3.72945022,487.27 C7.97945022,475.79 13.3394502,464.85 19.7694502,454.44 C20.7694502,458 22.8194502,460.28 26.3894502,461.88 C30.5694502,463.75 34.7894502,465.06 39.2694502,465.19 C43.5394502,465.32 48.1394502,465.77 52.0494502,464.46 C58.5994502,462.27 64.7194502,458.8 71.0094502,455.85 C75.4994502,453.74 79.7694502,450.7 84.4894502,449.67 C92.0294502,448.03 99.7294502,447.18 107.20945,445.06 C109.11445,444.52 111.0382,444.034375 112.959606,443.543281 L114.399892,443.173 C119.676911,441.804688 124.896325,440.281875 129.61945,437.36 C137.52945,432.47 145.72945,428.22 154.39945,424.82 C156.60945,423.95 158.43945,422.12 160.41945,420.69 C164.95945,417.41 169.39945,413.97 174.05945,410.87 C176.09945,409.51 178.93945,409.27 180.79945,407.75 C186.45945,403.14 192.57945,399.37 199.16945,396.3 C205.31945,393.43 211.41945,390.46 217.57945,387.61 C218.27945,387.28 219.20945,387.33 220.02945,387.37 C224.62945,387.59 229.17945,387.93 233.83945,387.78 C241.35945,387.53 248.82945,386.71 256.33945,386.4 C257.63945,386.35 258.92945,386.08 260.21945,385.92 C269.51945,384.75 278.83945,383.7 288.11945,382.38 C296.93945,381.12 305.71945,379.71 314.35945,377.29 C315.312964,377.024054 316.281905,376.822155 317.249696,376.630831 L317.975064,376.488486 C321.235922,375.849335 324.436477,375.178378 326.93945,372.42 C327.77945,371.49 329.16945,371.03 330.34945,370.45 C333.45945,368.91 336.68945,367.57 339.69945,365.85 C342.38945,364.31 344.65945,361.97 347.43945,360.68 C355.14945,357.11 360.22945,350.58 366.09945,344.93 C367.72945,343.36 369.45945,341.87 371.22945,340.46 C373.63945,338.53 376.31945,336.9 378.54945,334.79 C383.15945,330.42 387.18945,325.37 392.12945,321.43 C397.98945,316.75 402.25945,311.16 405.31945,304.46 C407.16945,300.42 409.14945,296.44 411.06945,292.43 C414.56945,285.13 418.07945,277.84 421.52945,270.52 C422.14945,269.19 422.38945,267.69 422.95945,266.33 C423.615165,264.779107 424.317113,263.242162 425.028973,261.70833 L425.980805,259.664115 C426.13936,259.323403 426.297607,258.982607 426.455147,258.641607 L426.925252,257.617882 C429.961976,250.958166 432.578557,244.176071 431.81945,236.39 C431.78945,236.07 431.82945,235.71 431.94945,235.4 C433.587381,231.036552 434.014825,226.497111 434.351089,221.944792 L434.455553,220.50698 C434.594278,218.589834 434.737726,216.673448 434.96945,214.77 C435.20945,212.81 435.61945,210.8 435.44945,208.86 C435.06945,204.59 434.44945,200.33 433.76945,196.09 L433.689159,195.608298 C433.333838,193.524082 432.843022,191.497143 430.67945,190.16 C424.91945,186.6 419.24945,182.87 413.62945,179.1 C412.74945,178.51 412.24945,177.33 411.57945,176.42 C412.57945,176.33 413.56945,176.18 414.55945,176.16 C438.20945,175.55 461.85945,174.59 485.50945,174.46 C504.81945,174.36 524.16945,174.6 543.42945,175.86 C568.18945,177.49 592.72945,181.23 617.07945,186.11 C621.88945,187.08 626.73945,187.87 631.57945,188.74 C630.50945,187.14 629.17945,186.29 627.76945,185.62 C619.50945,181.7 611.21945,177.82 602.93945,173.93 C602.90945,172.9 602.86945,171.87 602.83945,170.84 C605.54945,167.06 608.30945,163.32 610.96945,159.51 C615.71945,152.69 620.14945,145.63 625.18945,139.03 C641.59945,117.56 660.75945,98.94 683.33945,83.97 C687.871117,80.9633333 692.398895,77.9508333 696.925145,74.9360648 L710.501672,65.8885185 C728.603895,53.8255556 746.71945,41.7833333 764.99945,29.99 C782.33945,18.8 800.43945,8.84 819.11945,0 Z M499.48945,620.7 C487.72945,623.73 476.12945,627.47 463.77945,627.32 C463.50945,627.32 463.23945,627.65 462.63945,628.05 C461.57945,640.31 461.44945,652.58 465.70945,664.77 C469.84945,676.61 477.28945,685.17 488.23945,690.93 C489.26945,691.47 490.79945,691.72 491.25945,692.57 C493.23094,696.155319 496.298237,696.164043 499.425765,695.875499 L499.883762,695.831532 L500.79945,695.74 C503.07945,695.52 505.32945,694.92 507.92945,694.43 C507.85945,696.03 507.74945,697.48 507.72945,698.93 C507.67945,702.25 507.36945,705.6 507.69945,708.89 C509.07945,722.56 508.03945,736.16 506.76945,749.76 C505.69945,761.26 500.35945,770.25 490.92945,776.85 C489.69945,777.71 488.49945,778.6 487.25945,779.45 C475.43945,787.54 462.18945,792.48 448.66945,796.73 C431.86945,802.01 414.85945,805.3 397.04945,802.41 C379.73945,799.6 363.48945,794.21 348.50945,785.03 C333.64945,775.91 320.50945,764.68 308.09945,752.52 C291.16945,735.93 276.03945,717.74 260.92945,699.53 C259.88945,698.27 258.74945,697.09 257.21945,695.4 C257.40945,696.48 257.40945,696.82 257.53945,697.11 C268.34945,720.74 279.69945,744.09 294.18945,765.74 C305.16945,782.15 317.67945,797.25 333.23945,809.61 C346.14945,819.86 360.21945,827.98 376.32945,832 C382.92945,833.65 389.66945,834.73 395.82945,835.97 C397.27945,838.33 398.29945,840.78 399.98945,842.62 C403.69945,846.66 407.51945,850.66 411.70945,854.18 C429.04945,868.75 447.76945,880.96 469.91945,887.05 C471.71945,888.73 473.30945,890.78 475.37945,892.03 C479.74945,894.67 484.13945,897.62 488.93945,899.11 C496.98945,901.61 505.35945,902.97 513.90945,902.29 C519.01945,901.88 524.15945,901.82 529.22945,901.15 C535.97945,900.25 542.81945,898.92 548.39945,894.83 C557.86945,887.89 567.43945,881.02 575.42945,872.26 C577.64945,869.83 579.40945,867.37 578.85945,863.88 C579.64945,863.04 580.38945,862.13 581.24945,861.36 C593.02945,850.72 602.31945,838.22 608.60945,823.66 C611.75945,816.36 614.11945,808.73 616.83945,801.24 C620.71945,799.56 623.94945,797.34 623.95945,792.49 C624.55945,792.21 625.14945,791.87 625.76945,791.67 C645.53945,785.13 659.73945,772.08 669.98945,754.25 C677.16945,741.76 681.91945,728.32 685.81945,714.56 C689.65945,700.98 693.20945,687.32 696.88945,673.7 L697.72945,670.86 L696.95945,670.48 L695.08945,673.29 C687.57945,684.69 680.18945,696.17 672.51945,707.46 C666.52945,716.27 660.45945,725.04 653.95945,733.48 C644.05945,746.33 631.60945,755.76 615.70945,760.12 C606.82945,762.56 597.74945,763.43 588.61945,764.29 C578.42945,765.25 569.49945,762.33 561.32945,756.71 C555.57945,752.76 549.88945,748.63 544.61945,744.07 C534.05945,734.95 525.32945,724.29 519.39945,711.54 C516.48945,705.28 514.68945,698.78 515.20945,692.05 C519.35945,689.28 523.67945,687.19 526.99945,684.04 C536.66945,674.85 545.60945,664.94 552.80945,653.63 C556.12945,648.41 558.63945,642.78 559.26945,636.49 C560.18945,627.2 555.52945,619.56 546.65945,616.83 C542.90945,615.68 538.82945,615.18 534.89945,615.13 C522.80945,615 511.09945,617.71 499.48945,620.7 Z M282.11945,648.59 C264.05945,649.16 247.65945,654.98 234.01945,666.7 C215.96945,682.22 209.18945,702.66 210.92945,726.12 C211.08945,728.3 211.38945,730.62 213.29945,732.68 C216.72945,725.7 221.56945,720.24 227.04945,715.36 C230.89945,711.93 234.82945,708.57 238.93945,705.47 C247.04945,699.34 254.66945,692.72 261.67945,685.31 C267.14945,679.52 273.06945,674.11 279.11945,668.93 C285.92945,663.1 293.62945,658.95 302.97945,658.88 C304.07945,658.86 305.15945,658.31 306.23945,658.02 C306.39945,657.6 306.55945,657.18 306.71945,656.75 C306.42545,656.516 306.13625,656.274 305.84873,656.0292 L304.98809,655.2916 C304.12625,654.556 303.25145,653.842 302.27945,653.29 C296.03945,649.74 289.18945,648.37 282.11945,648.59 Z M682.76945,621.21 C682.27945,621.2 681.75945,621.29 681.29945,621.44 C678.84945,622.27 678.59945,623.98 680.45945,625.91 C682.63945,628.16 684.96945,630.34 686.73945,632.9 C691.84945,640.28 696.64945,647.87 701.68945,655.29 C703.63945,658.16 705.54945,661.22 708.09945,663.5 C716.51945,671.04 725.21945,678.25 734.26945,685.97 C737.40945,677.23 738.92945,668.37 738.10945,659.11 C737.10945,647.85 732.39945,638.84 722.99945,632.26 C710.86945,623.77 697.10945,621.51 682.76945,621.21 Z M607.00945,487.65 C592.46945,493.71 580.63945,503.65 569.17945,514.11 C562.99945,519.75 557.57945,526.03 553.58945,533.44 C552.71945,535.05 551.85945,536.69 551.31945,538.41 C551.07945,539.16 551.41945,540.34 551.91945,540.99 C552.16945,541.32 553.47945,541.11 554.12945,540.78 C554.99945,540.34 555.63945,539.48 556.45945,538.93 C559.76945,536.71 562.93945,534.22 566.45945,532.41 C580.14945,525.4 594.68945,520.35 609.68945,517.48 C629.42945,513.71 649.41945,511.2 669.35945,508.56 C675.40945,507.76 681.64945,508.1 687.78945,508.34 C695.52945,508.64 702.16945,511.95 708.34945,517.38 C708.05945,513 706.49945,509.74 704.50945,506.67 C700.54945,500.54 695.31945,495.69 688.99945,492.12 C662.42945,477.13 635.06945,475.96 607.00945,487.65 Z M278.61945,484.58 C266.16945,490.28 255.26945,498.14 246.35945,508.47 C241.38945,514.24 237.11945,520.64 232.84945,526.98 C231.62945,528.78 231.25945,531.31 231.04945,533.56 C230.95945,534.55 232.25945,535.67 232.92945,536.73 C233.89945,536.04 234.94945,535.44 235.80945,534.64 C236.98945,533.53 237.80945,531.94 239.13945,531.11 C250.63945,523.89 262.99945,518.71 276.18945,515.42 C286.68195,512.8025 297.371325,511.889375 308.07195,511.136562 L310.747233,510.950806 C313.422536,510.766602 316.097575,510.584375 318.76945,510.38 C325.02945,509.9 331.42945,510.34 337.69945,511 C348.25945,512.11 357.95945,516.06 367.82945,520.85 C367.61945,520.28 367.42945,519.7 367.18945,519.15 C353.98945,488.11 317.06945,466.99 278.61945,484.58 Z M296.38945,385.3 C280.94945,387.86 265.68945,391.16 252.02945,399.31 C248.08945,401.66 244.47945,404.84 241.32945,408.21 C232.02945,418.14 224.75945,429.48 219.55945,442.06 C218.04945,445.72 217.07945,449.64 216.23945,453.53 C215.66945,456.14 216.05945,458.77 219.04945,460.78 C222.127177,455.145909 227.121222,452.106978 232.200122,449.260901 L233.024182,448.800686 C233.711036,448.417949 234.397632,448.036364 235.07945,447.65 C240.86945,444.37 246.79945,441.33 252.74945,438.34 C265.42945,431.96 275.52945,422.83 282.78945,410.61 C287.61945,402.48 292.43945,394.35 297.25945,386.23 L296.38945,385.3 Z M571.22945,335.64 C567.16945,335.98 563.18945,337.61 559.26945,338.93 C558.21945,339.28 556.98945,340.65 556.87945,341.66 C556.79945,342.42 558.24945,343.85 559.25945,344.14 C565.919753,346.037576 571.274014,350.035409 576.515962,354.243428 L577.52945,355.06 C583.33945,359.77 589.14945,364.48 595.02945,369.12 C599.49945,372.65 604.51945,375.15 609.94945,376.95 C621.08945,380.66 632.18945,384.57 643.69945,388.53 C643.62945,387.73 643.63945,386.57 643.41945,385.46 C641.90945,377.74 639.33945,370.39 635.36945,363.59 C628.68945,352.17 619.75945,343.5 606.68945,339.55 C595.06945,336.04 583.24945,334.63 571.22945,335.64 Z M633.36945,188.67 C633.33945,188.67 633.28945,188.86 633.24945,188.97 C633.38945,188.99 633.53945,189.04 633.67945,189.02 C633.73945,189.02 633.76945,188.87 633.81945,188.79 C633.66945,188.74 633.51945,188.68 633.36945,188.67 Z"></path></clipPath><clipPath id="i4"><path d="M35.4008733,0 C37.4908733,1.28 39.8308733,2.55 42.0108733,4.07 C72.5108733,25.31 101.980873,47.87 129.410873,73.01 C148.340873,90.36 166.640873,108.32 182.880873,128.25 C200.410873,149.75 215.320873,172.96 227.550873,197.86 C237.880873,218.89 245.350873,240.98 248.860873,264.11 C251.450873,281.19 252.620873,298.51 253.860873,315.77 C254.360873,322.68 253.360873,329.7 253.040873,336.68 C247.570873,338.98 242.040873,341.17 236.640873,343.61 C223.970873,349.34 211.760873,355.94 200.240873,363.73 C187.520873,372.34 175.000873,381.21 163.490873,391.47 C156.870873,397.37 151.210873,403.85 146.980873,411.69 C144.240873,416.77 140.950873,421.6 137.480873,426.22 C137.033373,426.815 136.583651,427.408056 136.133628,428.000434 L135.23375,429.184664 C130.588188,435.3024 126.047262,441.438056 123.730873,448.99 C122.940873,451.63 120.770873,452.84 117.980873,452.85 C121.820873,446.84 125.670873,440.83 129.510873,434.81 L129.810983,434.347545 L130.420503,433.423704 C131.028651,432.497778 131.61754,431.56 132.050873,430.56 C132.270873,430.06 131.740873,429 131.250873,428.5 C130.960873,428.2 129.890873,428.25 129.490873,428.56 C128.460873,429.37 127.540873,430.35 126.680873,431.35 C106.280873,454.96 89.9708733,481.09 78.2908733,510.07 C74.5608733,519.32 70.8008733,528.56 66.9408733,537.76 C66.3408733,539.18 65.1308733,540.33 64.1908733,541.61 C64.1908733,541.61 64.2708733,541.7 64.2708733,541.7 C63.9108733,541.34 63.5508733,540.98 63.1908733,540.63 C63.1908733,540.63 63.2708733,540.7 63.2708733,540.7 C62.9208733,540.34 62.5708733,539.98 62.2208733,539.63 C62.2208733,539.63 62.2608733,539.66 62.2608733,539.66 C62.0908733,539.21 62.0108733,538.68 61.7308733,538.32 C40.5008733,510.7 27.1008733,479.38 18.0508733,445.99 C9.00087327,412.59 4.58087327,378.48 2.39087327,344.04 C0.600873268,315.78 -0.169126732,287.48 0.0308732681,259.15 C0.230873268,231.65 1.72087327,204.22 4.42087327,176.87 C6.32087327,157.66 8.61087327,138.48 11.0508733,119.34 C14.6108733,91.45 18.2008733,63.56 22.3408733,35.75 C23.4583733,28.265 25.4421233,20.90375 27.4230608,13.5523437 L28.2132258,10.6120362 C28.6061733,9.141875 28.9943733,7.6715 29.3708733,6.2 C30.1208733,3.26 31.6908733,0.69 35.4008733,0 Z"></path></clipPath><clipPath id="i5"><path d="M3.5,0 C6,0.88 8.55,1.64 11,2.65 C58.54,22.2 103.9,45.92 147.24,73.54 C167.47,86.43 187.37,99.77 206.06,114.86 C224.832727,130.014545 241.993884,146.896364 259.031074,163.897641 L264.14,169 C272.74,177.59 280.35,187.06 287.42,196.86 C284.68,200.68 284.82,201.28 289.05,201.53 C291.21,201.66 291.91,203 292.75,204.35 C297.6,212.11 302.38,219.91 307.19,227.7 C307.89,228.83 308.5,230.02 309.34,231.04 C309.68,231.45 310.72,231.79 311.08,231.57 C311.69,231.19 312.38,230.35 312.38,229.7 C312.37,228.58 311.94,227.44 311.55,226.36 C308.79,218.87 305.98,211.4 303.21,203.91 C302.78,202.75 302.42,201.57 301.87,199.93 C309.44,199.2 316.54,198.36 323.66,197.85 C327.1475,197.600625 330.634648,197.339648 334.121709,197.075903 L341.095791,196.547339 C353.88168,195.581133 366.66875,194.656875 379.47,194.21 C394.77,193.676429 410.082398,193.498265 425.39391,193.356706 L435.601308,193.264257 C440.704796,193.217245 445.807857,193.166429 450.91,193.1 C456.73,193.03 462.56,193.1 468.38,193.1 C469.05,194.01 469.55,195.18 470.43,195.78 C476.06,199.55 481.72,203.28 487.48,206.84 C489.81,208.28 490.2,210.52 490.57,212.77 C491.26,217.01 491.87,221.27 492.25,225.54 C492.42,227.48 492.01,229.49 491.77,231.45 C491.535517,233.353448 491.390832,235.269834 491.251763,237.18698 L491.147199,238.624792 C490.811082,243.177111 490.387931,247.716552 488.75,252.08 C488.64,252.38 488.59,252.74 488.62,253.07 C489.456964,261.654643 486.190281,269.018804 482.781355,276.344115 L481.829523,278.38833 C481.117663,279.922162 480.415714,281.459107 479.76,283.01 C479.19,284.37 478.95,285.87 478.33,287.2 C474.88,294.52 471.36,301.81 467.87,309.11 C465.95,313.12 463.97,317.1 462.12,321.14 C459.05,327.85 454.78,333.44 448.93,338.11 C444,342.05 439.97,347.1 435.35,351.47 C433.12,353.58 430.44,355.21 428.03,357.14 C426.26,358.56 424.53,360.04 422.9,361.61 C421.630811,362.833784 420.398554,364.09824 419.168659,365.364553 L418.246141,366.314029 C414.091943,370.582783 409.866216,374.762162 404.24,377.36 C401.46,378.65 399.19,380.99 396.5,382.53 C394.827778,383.485556 393.087654,384.323827 391.337929,385.144266 L389.23738,386.126598 C388.538148,386.455432 387.841111,386.787778 387.15,387.13 C385.97,387.72 384.59,388.18 383.74,389.1 C380.31,392.88 375.56,392.73 371.16,393.97 C362.52,396.39 353.74,397.8 344.92,399.06 C335.64,400.38 326.32,401.43 317.02,402.6 C315.73,402.76 314.44,403.03 313.14,403.08 C305.63,403.39 298.17,404.21 290.64,404.46 C285.98,404.62 281.43,404.28 276.83,404.05 C276.01,404.01 275.09,403.96 274.38,404.29 C268.22,407.14 262.12,410.1 255.97,412.98 C249.38,416.06 243.26,419.83 237.6,424.43 C235.74,425.94 232.9,426.19 230.86,427.55 C226.2,430.65 221.76,434.09 217.22,437.37 C215.24,438.8 213.41,440.64 211.2,441.5 C202.53,444.9 194.33,449.15 186.42,454.04 C181.69,456.961875 176.473164,458.484688 171.198428,459.853 L169.75875,460.223281 L168.318135,460.591511 C166.877695,460.960586 165.43875,461.335 164.01,461.74 C156.53,463.86 148.82,464.71 141.29,466.35 C138.416957,466.976957 135.710643,468.348639 133.019955,469.801995 L131.867319,470.427929 C130.522665,471.159509 129.176522,471.887826 127.81,472.53 C121.52,475.48 115.4,478.95 108.85,481.14 C104.94,482.45 100.34,482 96.07,481.87 C91.59,481.73 87.37,480.43 83.19,478.56 C79.62,476.96 77.57,474.67 76.57,471.12 C77.56,469.49 78.53,467.84 79.49,466.19 C82.28,466.18 84.45,464.97 85.26,462.32 C87.95,453.56 93.64,446.69 99.01,439.55 C102.48,434.93 105.77,430.1 108.51,425.02 C112.75,417.17 118.4,410.7 125.02,404.8 C136.53,394.55 149.04,385.67 161.77,377.06 C173.29,369.27 185.5,362.67 198.17,356.94 C203.58,354.5 209.1,352.31 214.57,350.01 L213.749,358.915 L213.813588,358.84728 C214.506944,358.148194 215.399167,357.523333 215.72,356.68 C217.79,351.25 220.16,345.87 221.57,340.26 C223.51,332.53 224.83,324.63 226.16,316.76 C229.63,296.18 231.6,275.54 229.79,254.61 C228.09,234.9 223.87,215.82 217.01,197.3 C205.76,166.92 187.36,141.21 165.05,118.08 C146.12,98.44 124.81,81.64 102.43,66.17 C70.03,43.77 35.77,24.62 0,8.15 C0.33,5.07 1.1,2.19 3.5,0 Z"></path></clipPath><clipPath id="i6"><path d="M37.1726961,0 C36.7026961,6.44 36.2426961,12.88 35.7526961,19.32 C35.6926961,20.14 35.1926961,21.06 35.4326961,21.75 C36.7616435,25.7236842 36.2510826,29.5761773 35.5383466,33.4185331 L35.3642465,34.3405608 C35.3348623,34.4942185 35.3053642,34.6478743 35.2758569,34.8015352 L35.0995426,35.7236186 C34.8665466,36.9532964 34.6463803,38.1842105 34.4926961,39.42 C34.2926961,41.05 34.3526961,42.74 34.4826961,44.39 C34.6926961,47.19 35.3026961,49.97 35.3126961,52.76 C35.3226961,61.33 35.7226961,69.85 37.1126961,78.31 C35.1626961,83.52 39.4926961,88.49 37.6226961,93.87 C37.2601961,94.92625 37.7180086,96.2598437 38.2344149,97.6217578 L38.4422968,98.1674436 C38.6842586,98.8044618 38.9168628,99.4404167 39.0626961,100.05 C40.8726961,107.6 42.8626961,115.1 46.4026961,122.05 C48.3326961,125.84 50.4626961,129.56 52.7826961,133.13 C57.7426961,140.74 61.8426961,148.77 65.4726961,157.09 C67.2326961,161.12 69.8526961,164.78 72.0926961,168.6 C74.7726961,173.16 77.4326961,177.73 80.1426961,182.27 C84.3826961,189.36 88.6826961,196.42 92.9126961,203.52 C93.3060295,204.18 93.6693628,204.856667 94.0226961,205.538519 L95.0726961,207.588148 C95.4260295,208.268889 95.7893628,208.943333 96.1826961,209.6 C99.4026961,214.95 102.702696,220.27 105.982696,225.58 C108.502696,229.65 111.012696,233.74 113.612696,237.76 C115.052696,239.99 116.622696,242.15 118.242696,244.25 C126.852696,255.42 135.242696,266.77 144.212696,277.65 C149.872696,284.52 156.462696,290.63 162.502696,297.2 C165.587696,300.555 168.632696,303.945 171.667696,307.345 L177.733252,314.150926 C178.744918,315.285 179.757696,316.418333 180.772696,317.55 C183.412696,320.49 186.042696,323.45 188.742696,326.34 C190.062696,327.762857 191.4129,329.161224 192.767419,330.55586 L194.799198,332.647609 C197.503921,335.439796 200.174125,338.258571 202.602696,341.27 C208.062696,348.03 214.992696,353.21 220.982696,359.39 C223.482696,361.97 226.802696,363.75 229.672696,365.99 C231.632696,367.52 233.582696,369.1 235.302696,370.87 C239.212696,374.91 243.202696,378.67 248.672696,380.72 C251.062696,381.62 253.192696,383.51 255.102696,385.31 C260.302696,390.2 267.282696,392.08 272.922696,396.18 C275.962696,398.39 279.652696,399.91 281.342696,403.66 C269.912696,400.75 258.322696,398.37 247.092696,394.84 C212.412696,383.93 180.282696,367.52 149.592696,348.24 C125.752696,333.26 102.532696,317.34 80.0926961,300.33 C63.6026961,287.83 47.8226961,274.49 34.7226961,258.33 C15.8026961,234.99 4.36269614,208.47 1.07269614,178.49 C-1.40730386,155.91 0.662696137,133.6 4.72269614,111.4 C10.1826961,81.53 19.5026961,52.71 28.6826961,23.85 C30.7526961,17.35 32.9226961,10.89 35.1326961,4.44 C35.6326961,2.92 36.4726961,1.49 37.1726961,0 Z"></path></clipPath><clipPath id="i7"><path d=""></path></clipPath><clipPath id="i8"><path d="M2.838,185.697 L2.87,185.768589 C2.1,184.088589 1.34,182.398589 0,179.458589 C4.99,180.688589 5.38,177.708589 6.21,175.208589 C7.05,172.688589 7.9,170.178589 8.57,167.608589 C10.43,160.518589 12.96,153.718589 16.36,147.208589 C18.4628571,143.180018 20.4971429,139.115528 22.5188338,135.044974 L25.5489213,128.938327 C26.0546939,127.921038 26.5614286,126.904303 27.07,125.888589 C27.54,125.218589 28.08,124.588589 28.48,123.878589 C36.81,108.998589 47,95.5385891 59.29,83.6885891 C62.27,80.8185891 65.11,77.7985891 68.01,74.8585891 C68.91,74.1385891 69.86,73.4685891 70.71,72.6885891 C93.69,51.7585891 119.52,35.3985891 148.51,24.1285891 C156.69,20.9485891 164.98,18.0185891 173.22,14.9785891 C179.01,13.4685891 184.8,11.9685891 190.59,10.4385891 C210.44,5.20858906 230.64,1.99858906 251.06,0.0185890623 C251.66,-0.0414109377 252.27,0 253.08,0.708589062 L244.37,4.56858906 C242.71,5.30858906 240.99,5.95858906 239.43,6.87858906 C239.09,7.07858906 239.32,8.24858906 239.29,8.96858906 L242.95,17.6685891 C244.81,21.7885891 246.66,25.9085891 248.52,30.0185891 C248.87,31.1085891 249.18,32.2285891 249.59,33.2985891 C253.23,42.7285891 256.88,52.1585891 260.54,61.5885891 C260.96,62.6585891 261.45,63.7085891 261.9,64.7685891 C264.67,72.7085891 267.39,80.6585891 270.21,88.5785891 C273.58,98.0285891 277.03,107.458589 280.44,116.888589 C286.66,135.888589 291.96,155.138589 295.95,174.748589 C296.92,181.978589 298.22,189.188589 298.78,196.458589 C299.73,208.868589 300.2,221.328589 300.88,233.758589 C300.93,234.748589 300.99,235.748589 301.05,236.738589 C300.36,245.188589 300.02,253.688589 298.89,262.078589 C297.45,272.748589 295.39,283.348589 293.54,293.958589 C292.97,297.208589 292.24,300.428589 291.58,303.668589 C289.89,309.188589 288.21,314.708589 286.51,320.218589 C281.48,336.548589 274.73,352.188589 267.26,367.538589 C263.48,373.948589 259.96,380.538589 255.87,386.738589 C249.59,396.258589 242.91,405.518589 235.91,415.598589 C238.49,419.248589 241.51,423.518589 244.53,427.788589 C250.92,438.308589 257.38,448.798589 263.68,459.368589 C267.76,466.228589 271.62,473.218589 275.58,480.148589 C280.5,490.418589 285.48,500.668589 290.32,510.978589 C292.77,516.208589 294.98,521.548589 297.3,526.838589 C300.61,536.188589 304.07,545.478589 307.18,554.888589 C308.548,559.028589 309.7432,563.218989 310.9168,567.418749 L312.0888,571.620109 C312.4808,573.020589 312.876,574.420589 313.28,575.818589 C314.73,583.248589 316.42,590.648589 317.57,598.128589 C318.92,606.938589 319.8,615.818589 320.88,624.668589 C320.888,625.792589 320.9056,626.917389 320.92648,628.042589 L320.99264,631.418989 C321.056,634.795789 321.092,638.172589 320.93,641.538589 C320.43,652.098589 319.62,662.648589 318.94,673.208589 C318.85,674.688589 318.82,676.178589 318.76,677.658589 C317.22,684.448589 315.74,691.258589 314.12,698.028589 C310.77,711.988589 305.74,725.338589 299.43,738.218589 C298.56,739.998589 297.8,741.838589 296.99,743.658589 C291.22,752.748589 285.72,762.028589 279.62,770.888589 C270.38,784.338589 259.3,796.238589 247.32,807.298589 C246.72,807.858589 246.18,808.488589 245.61,809.088589 C239.57,814.018589 233.68,819.138589 227.47,823.848589 C211.15,836.218589 193.67,846.718589 175.14,855.468589 C173.2,856.378589 171.34,857.458589 169.45,858.458589 C166.22,859.758589 162.99,861.048589 159.77,862.368589 C141.43,869.848589 122.73,876.208589 103.43,880.718589 C102.15,881.018589 100.89,881.428589 99.62,881.788589 L97.07,880.828589 C119.71,871.548589 141.43,860.488589 161.96,847.168589 C176.76,837.568589 190.86,827.018589 203.99,815.198589 C204.72,814.538589 205.33,813.738589 205.99,813.008589 C206.78,812.408589 207.63,811.878589 208.35,811.208589 C232.7,788.458589 252.69,762.488589 266.77,732.138589 C281.49,700.418589 289.15,667.098589 289.78,632.158589 C290.06,616.628589 289.02,601.178589 286.58,585.858589 C285.12,576.688589 282.96,567.628589 281.11,558.508589 C278.48,548.558589 276.18,538.508589 273.16,528.688589 C258.4,480.778589 236.58,436.008589 212.13,392.438589 C209.86,388.388589 206.91,384.728589 204.48,380.768589 C203.59,379.318589 203.29,377.498589 202.71,375.848589 C205.18,374.818589 206.37,376.678589 207.73,378.088589 C216.2,386.888589 223.13,396.878589 229.99,406.918589 C231.29,408.818589 232.64,410.678589 234.33,413.068589 C235.36,411.028589 236.13,409.598589 236.82,408.128589 C253.15,373.168589 260.98,336.038589 264.83,297.898589 C266.96,276.828589 267.43,255.688589 267.67,234.528589 C268.01,203.668589 266.44,172.928589 261.05,142.488589 C257.8,124.138589 254.26,105.848589 250.86,87.5285891 C250.362692,84.8493583 249.870178,82.1691956 249.378784,79.4888383 L248.396405,74.1280827 C244.955695,55.3660595 241.45,36.6185891 236.62,18.1385891 C236.14,16.3085891 235.58,14.4885891 234.7,11.4385891 C231.21,16.8785891 228.35,21.1485891 225.68,25.5185891 L224.846557,26.8872259 L223.178071,29.6237797 C212.05179,47.8664149 200.91907,66.116496 193.04,86.0885891 C186.94,101.558589 181.25,117.198589 175.09,132.638589 C161.32,167.138589 149.27,202.178589 141.22,238.488589 C135.64,263.628589 134.46,288.938589 139.88,314.298589 C142.67,327.348589 146.89,339.918589 153.64,351.528589 C154.95,354.088589 156.26,356.658589 157.56,359.218589 C157.39,359.758589 157.22,360.308589 157.05,360.868589 C134.61,338.468589 120.27,311.728589 114.27,280.598589 C109.93,258.098589 110.53,235.568589 114.31,213.038589 C118.39,188.678589 126.84,165.728589 138.06,143.928589 C149.93,120.858589 162.62,98.1885891 175.64,75.7385891 C185.602128,58.5709295 198.50163,43.5568371 211.729647,28.8508599 L213.667497,26.7007509 C214.960557,25.2685257 216.255532,23.8383763 217.55,22.4085891 L224.61,14.6485891 L225.6,13.4785891 C225.49,13.3285891 225.38,13.1785891 225.27,13.0385891 C224.51,13.4585891 223.77,13.8885891 223.03,14.3285891 C204.35,23.1685891 186.25,33.1285891 168.91,44.3185891 C141.49,62.0085891 114.44,80.2585891 87.25,98.2985891 C64.67,113.278589 45.51,131.898589 29.1,153.358589 C24.06,159.958589 19.63,167.018589 14.88,173.838589 C12.22,177.648589 9.46,181.398589 6.75,185.168589 L4.755,185.438589 L2.838,185.697 Z"></path></clipPath><clipPath id="i9"><path d="M285.086,353.665 L285.07,353.833915 C285.35,350.803915 285.63,347.763915 285.91,344.733915 C286.23,337.763915 287.23,330.743915 286.73,323.823915 C285.49,306.573915 284.32,289.253915 281.73,272.163915 C278.22,249.033915 270.75,226.943915 260.42,205.913915 C248.19,181.013915 233.28,157.803915 215.75,136.303915 C199.5,116.373915 181.21,98.4139149 162.28,81.0639149 C134.84,55.9239149 105.38,33.3639149 74.88,12.1239149 C72.71,10.6139149 70.36,9.33391494 68.27,8.05391494 C64.55,8.75391494 62.98,11.3239149 62.24,14.2539149 C59.74,24.0639149 56.7,33.8239149 55.21,43.8039149 C51.07,71.6139149 47.48,99.5039149 43.92,127.393915 C41.48,146.543915 39.19,165.723915 37.29,184.923915 C34.58,212.273915 33.09,239.713915 32.9,267.203915 C32.7,295.523915 33.47,323.823915 35.26,352.093915 C37.44,386.533915 41.87,420.643915 50.92,454.043915 C59.97,487.433915 73.36,518.753915 94.6,546.373915 C94.88,546.743915 94.96,547.263915 95.13,547.713915 C93.79,547.033915 92.23,546.593915 91.15,545.623915 C81.22,536.733915 72.34,526.873915 64.5,516.113915 C59.62,509.423915 55.04,502.503915 50.33,495.693915 C39.87,477.693915 31.06,458.923915 23.99,439.353915 C23.54,438.113915 23.01,436.893915 22.52,435.663915 C18.9,422.983915 15.13,410.343915 11.72,397.603915 C9.8,390.413915 8.49,383.073915 6.91,375.793915 C6.2,372.163915 5.39,368.543915 4.8,364.883915 C4.21,361.243915 3.81,357.563915 3.39,353.893915 C2.93,349.783915 2.51,345.663915 2.15,341.543915 C1.41,332.963915 0.71,324.383915 0,315.803915 C0.05,303.903915 0.02,292.003915 0.2,280.103915 C0.3,273.333915 0.73,266.573915 1.01,259.803915 C1.63,254.023915 2.34,248.253915 2.84,242.463915 C4.72,220.753915 8.21,199.273915 12.4,177.903915 C12.85,175.623915 13.29,173.343915 13.73,171.063915 C14.05,168.993915 14.25,166.883915 14.72,164.843915 C18.04,150.583915 21.42,136.333915 24.78,122.083915 C28.88,105.663915 32.99,89.2439149 37.08,72.8139149 C37.24,72.1939149 37.14,71.5039149 37.17,70.8439149 C41.45,57.2639149 45.59,43.6239149 50.09,30.1139149 C52.13,23.9839149 54.92,18.1139149 57.36,12.1139149 C57.36,12.1139149 57.31,11.9339149 57.31,11.9339149 L58.62,9.97391494 C59.75,8.61391494 60.87,7.25391494 62.26,5.57391494 C60.66,4.83391494 59.25,4.40391494 58.14,3.58391494 C57.52,3.12391494 56.94,1.81391494 57.18,1.21391494 C57.43,0.583914938 58.69,-0.0560850624 59.46,0 C61.07,0.123914938 62.65,0.713914938 64.24,1.10391494 C66.62,1.69391494 69,2.27391494 71.38,2.85391494 C107.15,19.3239149 141.41,38.4739149 173.81,60.8739149 C196.19,76.3439149 217.49,93.1439149 236.43,112.783915 C258.74,135.913915 277.14,161.623915 288.39,192.003915 C295.25,210.523915 299.46,229.603915 301.17,249.313915 C302.98,270.243915 301.01,290.883915 297.54,311.463915 C296.21,319.333915 294.89,327.233915 292.95,334.963915 C291.54,340.573915 289.18,345.953915 287.1,351.383915 C286.779167,352.227248 285.895347,352.852109 285.195689,353.551195 L285.086,353.665 Z"></path></clipPath><clipPath id="i10"><path d="M0,0 C42.62,4.53 84.38,12.8 124.76,27.36 C129.43,29.03 134.1,30.72 138.78,32.4 C143.63,34.57 148.46,36.75 153.32,38.89 C181.08,51.14 206.18,67.53 229.07,87.38 C229.94,88.13 230.89,88.79 231.81,89.49 L232.075139,89.7998611 L232.59375,90.43125 C232.855,90.745 233.125,91.05 233.43,91.32 C246.04,102.61 257.74,114.77 268.5,127.83 C271.97,132.04 275.44,136.24 278.91,140.45 C282.13,144.89 285.26,149.39 288.57,153.76 C300.16,169.06 310.76,184.97 318.96,202.39 C319.29,203.09 319.92,203.64 320.32,204.15 C330.68,201.19 340.72,198.16 350.84,195.44 C383.52,186.67 416.69,180.45 450.28,176.29 C475.57,173.16 500.84,170.08 526.34,169.2 C555.65,168.18 584.52,171.29 613.03,178.04 C633,182.77 652.36,189.35 671.29,197.24 C672.862727,197.894545 674.625537,198.069752 676.330496,198.396724 L676.819,198.496 L680.82,200.99 C689.1,204.88 697.38,208.76 705.65,212.68 C707.06,213.35 708.39,214.2 709.46,215.8 C704.63,214.93 699.78,214.14 694.96,213.17 C670.61,208.29 646.07,204.55 621.31,202.92 C602.05,201.65 582.7,201.41 563.39,201.52 C539.74,201.65 516.09,202.61 492.44,203.22 C491.45,203.25 490.45,203.39 489.46,203.48 C483.63,203.48 477.81,203.4 471.99,203.48 C466.885714,203.546429 461.781429,203.597245 456.67734,203.644257 L446.469483,203.736706 C431.158265,203.878265 415.85,204.056429 400.55,204.59 C387.74875,205.036875 374.956953,205.961133 362.17136,206.927339 L355.197996,207.455903 C351.711602,207.719648 348.225625,207.980625 344.74,208.23 C337.62,208.74 330.52,209.57 322.95,210.31 C323.5,211.95 323.86,213.13 324.29,214.29 C327.07,221.77 329.87,229.25 332.63,236.74 C333.03,237.82 333.46,238.96 333.46,240.08 C333.46,240.73 332.77,241.57 332.16,241.95 C331.8,242.17 330.76,241.83 330.42,241.42 C329.58,240.41 328.97,239.21 328.27,238.08 C323.46,230.29 318.68,222.49 313.83,214.73 C313.733077,214.574231 313.637885,214.418595 313.542011,214.264935 L313.348642,213.960798 C312.663669,212.909364 311.866538,212.015 310.13,211.91 C305.89,211.65 305.76,211.06 308.5,207.24 C301.43,197.44 293.82,187.98 285.22,179.38 C266.49,160.66 247.79,141.91 227.14,125.24 C208.45,110.15 188.55,96.82 168.32,83.92 C124.98,56.3 79.62,32.58 32.08,13.03 C29.63,12.02 27.08,11.26 24.58,10.38 C17.97,7.71 11.36,5.06 4.76,2.37 C3.12,1.7 1.53,0.93 0,0 Z"></path></clipPath><clipPath id="i11"><path d="M4.23,0 C5.08,0.32 5.93,0.64 6.78,0.96 C4.6,1.86 2.41,2.75 0,1.8 C1.41,1.2 2.82,0.6 4.23,0 Z"></path></clipPath><clipPath id="i12"><path d="M0,0 C1.16,0.7 2.92,1.13 3.38,2.15 C4.82,5.33 6.47,8.6 5.57,12.35 C3.72,8.23 1.86,4.12 0,0 Z"></path></clipPath><clipPath id="i13"><path d="M98.3213128,0 C99.2013128,3.05 99.7613128,4.86 100.241313,6.7 C104.83362,24.3 108.236579,42.1426036 111.524381,60.0093309 L112.508341,65.3698543 C113.163443,68.9437278 113.818236,72.5176923 114.481313,76.09 C117.881313,94.41 121.421313,112.7 124.671313,131.05 C130.061313,161.49 131.641313,192.23 131.291313,223.09 C131.051313,244.24 130.581313,265.39 128.451313,286.46 C124.601313,324.6 116.771313,361.72 100.441313,396.69 C99.7513128,398.16 98.9813128,399.59 97.9513128,401.63 C96.2613128,399.24 94.9113128,397.38 93.6113128,395.48 C86.7513128,385.44 79.8213128,375.45 71.3513128,366.65 C70.0013128,365.24 68.8013128,363.38 66.3313128,364.41 C61.0613128,359.9 56.1713128,354.83 50.4413128,351.02 C44.3013128,346.93 37.6313128,343.3 30.7013128,340.88 C26.7213128,339.47 21.8213128,339.11 17.2613128,340.09 C10.5113128,328.48 6.29131275,315.91 3.50131275,302.86 C-1.90868725,277.5 -0.728687246,252.19 4.84131275,227.05 C12.8913128,190.74 24.9513128,155.7 38.7113128,121.2 C44.8713128,105.75 50.5613128,90.12 56.6613128,74.65 C63.7524755,56.6751163 73.4790953,40.0950622 83.4645663,23.6599191 L85.1308007,20.9218561 C85.9647088,19.5532811 86.7994976,18.1852302 87.6337917,16.8169801 L89.3013128,14.08 C91.9713128,9.7 94.8213128,5.44 98.3213128,0 Z"></path></clipPath><clipPath id="i14"><path d="M277.68,0.00519646804 C281.62,0.045196468 285.69,0.545196468 289.44,1.70519647 C298.32,4.43519647 302.97,12.0851965 302.05,21.3651965 C301.43,27.6651965 298.92,33.2851965 295.59,38.5051965 C288.39,49.8151965 279.46,59.7251965 269.78,68.9151965 C266.46,72.0651965 262.14,74.1551965 257.99,76.9251965 C257.47,83.6551965 259.27,90.1651965 262.18,96.4151965 C268.11,109.175196 276.84,119.825196 287.4,128.945196 C292.68,133.505196 298.36,137.625196 304.11,141.585196 C312.28,147.205196 321.21,150.125196 331.4,149.165196 L333.780506,148.939389 C342.107618,148.140433 350.382174,147.213892 358.49,144.995196 C374.39,140.625196 386.85,131.205196 396.74,118.355196 C403.24,109.925196 409.31,101.145196 415.3,92.3351965 C422.97,81.0451965 430.36,69.5651965 437.87,58.1651965 C438.47,58.3051965 439.07,58.4351965 439.67,58.5651965 C435.99,72.1851965 432.44,85.8451965 428.6,99.4251965 C424.71,113.185196 419.95,126.625196 412.77,139.115196 C402.53,156.945196 388.32,169.995196 368.55,176.535196 C367.92,176.745196 367.34,177.085196 366.73,177.355196 C355.71,179.885196 344.61,181.695196 333.25,180.575196 C331.2,180.375196 330.12,181.185196 329.77,183.145196 C328.21,185.295196 326.78,187.555196 325.07,189.575196 C299.14,220.095196 265.87,231.595196 226.59,227.625196 C214.6,226.415196 203.05,223.485196 191.77,219.365196 C190.75,218.815196 189.66,218.365196 188.73,217.705196 C185.48,215.405196 182.3,215.625196 178.51,216.765196 C168.15,219.895196 157.49,221.415196 146.61,221.065196 C145.75,221.035196 144.89,221.235196 143.1,221.435196 C151.2,227.315196 159.26,230.995196 167.73,233.865196 C189.3,243.325196 211.63,247.795196 235.32,245.395196 C258.33,243.065196 280.66,238.255196 302.02,229.385196 C323.84,220.325196 342,206.405196 355.95,187.205196 C357.04,186.045196 358.12,184.885196 359.39,183.535196 C359.5,184.565196 359.56,185.335196 359.62,186.115196 C356.9,193.595196 354.54,201.235196 351.39,208.535196 C345.1,223.095196 335.81,235.595196 324.03,246.235196 C323.17,247.005196 322.43,247.915196 321.64,248.755196 C313.73,254.835196 305.57,260.535196 296.57,264.935196 C278.32,273.855196 258.91,276.695196 238.86,275.335196 C230.1,274.745196 221.42,273.095196 212.7,271.925196 C190.55,265.835196 171.82,253.635196 154.49,239.055196 C150.3,235.535196 146.49,231.525196 142.77,227.495196 C141.08,225.655196 140.05,223.205196 138.61,220.845196 C132.45,219.605196 125.71,218.515196 119.11,216.875196 C102.99,212.855196 88.93,204.735196 76.02,194.485196 C60.46,182.125196 47.95,167.025196 36.97,150.615196 C22.48,128.965196 11.13,105.615196 0.32,81.9851965 C0.19,81.7051965 0.2,81.3551965 0,80.2751965 C1.53,81.9751965 2.67,83.1551965 3.71,84.4051965 C18.82,102.605196 33.96,120.795196 50.88,137.395196 C63.28,149.555196 76.42,160.785196 91.29,169.905196 C106.27,179.095196 122.52,184.485196 139.83,187.285196 C157.64,190.175196 174.65,186.885196 191.45,181.605196 C204.97,177.355196 218.22,172.415196 230.04,164.325196 C231.28,163.475196 232.48,162.585196 233.71,161.725196 C243.14,155.125196 248.48,146.135196 249.55,134.635196 C250.82,121.035196 251.86,107.445196 250.48,93.7651965 C250.15,90.4851965 250.46,87.1251965 250.51,83.8051965 C250.53,82.3551965 250.63,80.9051965 250.71,79.3051965 C248.11,79.7951965 245.86,80.3951965 243.58,80.6151965 L243.351341,80.6378153 L242.435251,80.7290995 L241.977594,80.7712302 C238.929814,81.0366858 235.963404,80.9430688 234.04,77.4451965 C233.58,76.6051965 232.05,76.3451965 231.02,75.8051965 C220.07,70.0451965 212.63,61.4851965 208.49,49.6451965 C204.23,37.4651965 204.37,25.1951965 205.42,12.9251965 C206.02,12.5251965 206.29,12.1951965 206.56,12.1951965 C217.317949,12.3259657 227.521078,9.50783289 237.752465,6.76882077 L239.558416,6.28690334 C240.461657,6.04697162 241.365385,5.80904262 242.27,5.57519647 C253.89,2.57519647 265.6,-0.134803532 277.68,0.00519646804 Z M210.19,16.1751965 L209.56,17.2451965 C214.08,23.5851965 218.29,30.1651965 223.2,36.1951965 C229.65,44.1151965 235.55,52.2451965 238.9,62.0151965 C239.65,64.2051965 240.66,66.3351965 241.83,68.3351965 C242.87,70.1151965 244.28,71.6851965 245.57,73.4051965 C251.73,69.6151965 256.11,64.7951965 259.12,59.0151965 C264.87,47.9651965 270.18,36.6951965 275.63,25.4951965 C276.18,24.3551965 276.49,23.1051965 277.17,21.1551965 C266.67,20.5151965 256.75,19.6651965 246.83,19.3651965 C244.567895,19.2951965 242.304093,19.2574333 240.040782,19.2212775 L238.100973,19.1899661 C228.726302,19.0336244 219.370789,18.7546702 210.19,16.1751965 Z"></path></clipPath><clipPath id="i15"><path d="M88.4338762,0 C90.2838762,9.11 92.4438762,18.17 93.9038762,27.35 C96.3338762,42.67 97.3838762,58.13 97.1038762,73.65 C96.4738762,108.59 88.8138762,141.91 74.0938762,173.63 C60.0038762,203.98 40.0238762,229.95 15.6738762,252.7 C15.3138762,253.035 14.9213762,253.335 14.5201262,253.62625 L13.7129966,254.204861 C13.5788762,254.301944 13.4455429,254.4 13.3138762,254.5 C12.9738762,254.14 12.4138762,253.84 12.3138762,253.42 C11.4538762,249.95 9.12387623,248.19 5.67387623,247.94 C6.24387623,241.12 4.90387623,234.81 4.03387623,228.46 C3.82525554,226.93931 3.59523176,225.420702 3.360872,223.902482 L3.07865133,222.080698 L2.7988219,220.258638 C1.8773245,214.183924 1.10491071,208.093793 1.57387623,201.88 C1.72387623,199.95 1.34387623,197.91 0.863876227,196.01 C-0.426123773,190.9 -0.0361237728,185.8 0.523876227,180.67 C1.39387623,172.74 2.15387623,164.8 3.16387623,156.9 C4.06387623,149.84 4.52387623,142.61 6.47387623,135.83 C10.2738762,122.57 14.9738762,109.57 19.3438762,96.47 C19.7038762,95.39 20.4638762,94.46 20.9438762,93.41 C22.3838762,90.3 23.7438762,87.16 25.2138762,84.06 C26.6238762,81.09 28.1538762,78.17 29.5538762,75.19 C30.4638762,73.24 31.7838762,71.26 31.9138762,69.23 C32.1215685,66.0992308 33.4121011,63.5187574 34.8478316,60.9878971 L35.2819691,60.2296268 L35.7191926,59.4713291 C35.864823,59.2182249 36.0100301,58.9646154 36.1538762,58.71 C39.3338762,53.08 42.0638762,47.12 45.8738762,41.95 C52.4638762,33.01 59.4838762,24.35 66.8338762,16.01 C71.0838762,11.18 76.1538762,7.02 81.1838762,2.96 C83.1238762,1.41 85.9838762,0.96 88.4338762,0 Z"></path></clipPath><clipPath id="i16"><path d="M137.758697,12.3519168 C144.078697,15.9219168 149.308697,20.7719168 153.268697,26.9019168 C155.238697,29.9819168 156.798697,33.2519168 157.098697,37.6219168 C150.918697,32.1819168 144.278697,28.8819168 136.548697,28.5719168 C130.408697,28.3319168 124.168697,27.9919168 118.118697,28.7919168 C98.1786967,31.4319168 78.1886967,33.9419168 58.4486967,37.7119168 C43.4486967,40.5819168 28.9086967,45.6219168 15.2186967,52.6419168 C11.6986967,54.4519168 8.51869667,56.9419168 5.21869667,59.1619168 C4.39869667,59.7119168 3.75869667,60.5819168 2.88869667,61.0119168 C2.23869667,61.3419168 0.928696669,61.5519168 0.678696669,61.2219168 C0.178696669,60.5719168 -0.161303331,59.3919168 0.078696669,58.6419168 C0.628696669,56.9119168 1.48869667,55.2719168 2.34869667,53.6719168 C6.33869667,46.2619168 11.7686967,39.9719168 17.9386967,34.3419168 C29.3986967,23.8919168 41.2186967,13.9519168 55.7686967,7.88191684 C83.8186967,-3.80808316 111.188697,-2.63808316 137.758697,12.3519168 Z"></path></clipPath><clipPath id="i17"><path d="M136.144442,40.9542469 C136.269442,41.2292469 136.379442,41.5117469 136.484442,41.7967469 L136.794442,42.6542469 C126.924442,37.8642469 117.224442,33.9142469 106.654442,32.8042469 C100.384442,32.1442469 93.9944416,31.7042469 87.7244416,32.1842469 C73.4744416,33.2742469 59.1344416,33.7342469 45.1444416,37.2242469 C31.9544416,40.5142469 19.5844416,45.6942469 8.09444158,52.9142469 C6.77444158,53.7442469 5.94444158,55.3342469 4.76444158,56.4442469 C3.90444158,57.2542469 2.85444158,57.8442469 1.88444158,58.5342469 C1.69833047,58.2398024 1.46360825,57.9407284 1.22357053,57.641097 L0.935744738,57.2815325 C0.413546521,56.6227963 -0.0505584174,55.9692469 0.00444158256,55.3642469 C0.214441583,53.1142469 0.584441583,50.5842469 1.80444158,48.7842469 C6.07444158,42.4542469 10.3444416,36.0442469 15.3144416,30.2742469 C24.2244416,19.9442469 35.1244416,12.0742469 47.5744416,6.38424688 C86.0244416,-11.2057531 122.934442,9.91424688 136.144442,40.9542469 Z"></path></clipPath><clipPath id="i18"><path d="M91.6136562,4.72263849 C93.2236562,5.64263849 94.5736562,7.01263849 96.0536562,8.18263849 C95.8836562,8.60263849 95.7236562,9.02263849 95.5636562,9.45263849 C94.4836562,9.75263849 93.4036562,10.3026385 92.3136562,10.3126385 C82.9636562,10.3826385 75.2636562,14.5326385 68.4536562,20.3626385 C62.3936562,25.5426385 56.4836562,30.9626385 51.0136562,36.7426385 C44.0036562,44.1526385 36.3836562,50.7726385 28.2736562,56.9026385 C24.1636562,60.0126385 20.2336562,63.3726385 16.3836562,66.7926385 C10.8936562,71.6726385 6.06365616,77.1326385 2.63365616,84.1126385 C0.723656161,82.0526385 0.423656161,79.7326385 0.263656161,77.5526385 C-1.47634384,54.0926385 5.30365616,33.6526385 23.3536562,18.1326385 C36.9936562,6.41263849 53.3936562,0.592638495 71.4536562,0.022638495 C78.5236562,-0.197361505 85.3836562,1.17263849 91.6136562,4.72263849 Z"></path></clipPath><clipPath id="i19"><path d="M80.3719607,0 C80.6619607,0.32 80.9519607,0.63 81.2419607,0.94 C76.4219607,9.06 71.6019607,17.19 66.7719607,25.31 C59.5119607,37.53 49.4019607,46.66 36.7319607,53.04 C30.7919607,56.03 24.8519607,59.07 19.0619607,62.35 L18.6523326,62.5819434 L17.8305041,63.043351 L16.5945847,63.733564 C11.3750805,66.6520661 6.19286979,69.6936364 3.03196069,75.48 C0.0419606947,73.46 -0.348039305,70.83 0.221960695,68.23 C1.06196069,64.35 2.03196069,60.42 3.54196069,56.76 C8.74196069,44.18 16.0119607,32.84 25.3119607,22.91 C28.4619607,19.54 32.0719607,16.37 36.0119607,14.01 C49.6719607,5.86 64.9319607,2.56 80.3719607,0 Z"></path></clipPath><clipPath id="i20"><path d="M49.8131734,4.22911648 C62.8831734,8.17911648 71.8131734,16.8491165 78.4931734,28.2691165 C82.4631734,35.0691165 85.0331734,42.4191165 86.5431734,50.1391165 C86.7831734,51.2491165 86.7731734,52.4091165 86.8431734,53.2091165 C75.3331734,49.2491165 64.2331734,45.3491165 53.0731734,41.6291165 C47.6431734,39.8191165 42.6231734,37.3291165 38.1531734,33.7991165 C32.2831734,29.1591165 26.4731734,24.4491165 20.6531734,19.7391165 C15.0831734,15.2291165 9.47317338,10.8291165 2.38317338,8.81911648 C1.37317338,8.52911648 -0.0768266228,7.09911648 0.00317337716,6.33911648 C0.113173377,5.32911648 1.35317338,3.95911648 2.39317338,3.60911648 C6.31317338,2.27911648 10.2931734,0.65911648 14.3531734,0.31911648 C26.3831734,-0.69088352 38.2031734,0.71911648 49.8131734,4.22911648 Z"></path></clipPath><clipPath id="i21"><path d="M3.53949635,0.000835055999 C17.8794964,0.300835056 31.6294964,2.56083506 43.7694964,11.0508351 C53.1694964,17.6308351 57.8794964,26.6408351 58.8794964,37.9008351 C59.6894964,47.1708351 58.1594964,56.0208351 55.0294964,64.7608351 C45.9794964,57.0408351 37.2794964,49.8208351 28.8694964,42.2908351 C26.7976214,40.4383351 25.1482464,38.0709132 23.556635,35.7088551 L22.8248186,34.6209498 C22.7030901,34.4403272 22.5813714,34.2602101 22.4594964,34.0808351 C17.4194964,26.6508351 12.6194964,19.0708351 7.50949635,11.6908351 C5.73949635,9.13083506 3.40949635,6.95083506 1.22949635,4.70083506 C-0.640503649,2.77083506 -0.390503649,1.07083506 2.06949635,0.230835056 C2.53949635,0.070835056 3.04949635,-0.009164944 3.53949635,0.000835055999 Z"></path></clipPath><clipPath id="i22"><path d="M108.94,0 C109.49,3.49 107.73,5.95 105.51,8.38 C98.0526667,16.556 89.2189778,23.0856 80.3748356,29.5623526 L78.48,30.95 C72.91,35.03 66.06,36.37 59.31,37.27 C56.5445455,37.6409091 53.7582645,37.8273554 50.9673854,37.9851315 L48.1755748,38.139121 C46.7795041,38.2171074 45.3836364,38.3009091 43.99,38.41 C35.44,39.09 27.06,37.73 19.02,35.23 C14.22,33.74 9.83,30.78 5.46,28.15 C3.39,26.9 1.8,24.85 0,23.17 C8.72,24.34 17.4,25.99 26.16,26.58 C46.21,27.93 65.62,25.1 83.87,16.18 C92.87,11.78 101.02,6.08 108.94,0 Z"></path></clipPath><clipPath id="i23"><path d="M36.96,0 C36.96,4.84 33.73,7.06 29.83,8.74 C29.77,7.96 29.71,7.18 29.63,6.18 C28.36,7.53 27.28,8.69 26.19,9.85 C22.4,9.81 18.59,9.97 14.81,9.65 C12.41,9.45 9.56,9.18 7.84,7.8 C5.32,5.77 2.81,5.69 0,5.79 C0.35,3.83 1.43,3.02 3.48,3.22 C14.85,4.34 25.94,2.53 36.96,0 Z"></path></clipPath><clipPath id="i24"><path d="M1.87,0 C2.13,0.13 2.38,0.25 2.64,0.38 L1.8,3.21 C1.2,3.08 0.6,2.95 0,2.81 C0.63,1.87 1.25,0.93 1.87,0 Z"></path></clipPath><clipPath id="i25"><path d="M3.99,0 L4.09,3.09 L0,0.54 L3.99,0 Z"></path></clipPath><clipPath id="i26"><path d="M0.51,0 C0.82,0.8 1.13,1.59 1.44,2.38 C0.96,2.14 0.48,1.9 0,1.65 C0.17,1.1 0.34,0.55 0.51,0 Z"></path></clipPath><clipPath id="i27"><path d="M2.23,0 C2.34,0.15 2.45,0.3 2.56,0.44 L1.57,1.61 C1.05,1.5 0.52,1.4 0,1.3 L2.23,0 Z"></path></clipPath><clipPath id="i28"><path d="M1.37,0 C1.55,0.19 1.74,0.38 1.92,0.57 L0.58,2.07 C0.58,1.68 0.39,1.48 0,1.47 L1.37,0 Z"></path></clipPath><clipPath id="i29"><path d="M0.335,0.324210708 C0.485,0.334210708 0.635,0.394210708 0.785,0.444210708 C0.745,0.524210708 0.705,0.674210708 0.645,0.674210708 C0.505,0.684210708 0.355,0.644210708 0.215,0.624210708 C0.255,0.524210708 0.295,0.324210708 0.335,0.324210708 Z"></path></clipPath><clipPath id="i30"><path d="M1.26,0 C1.65,0.01 1.84,0.21 1.84,0.6 L1,2.07 C0.67,1.79 0.33,1.52 0,1.24 C0.42,0.83 0.84,0.42 1.26,0 Z"></path></clipPath><clipPath id="i31"><path d="M169.87,2.03693987 C171.59,3.42693987 174.44,3.68693987 176.84,3.88693987 C180.61,4.20693987 184.42,4.04693987 188.22,4.08693987 C174.27,23.2869399 156.11,37.2069399 134.29,46.2669399 C112.94,55.1369399 90.6,59.9469399 67.59,62.2769399 C43.89,64.6769399 21.57,60.2069399 0,50.7469399 C6.35,47.9869399 12.74,45.3169399 19.03,42.4269399 C21.6,41.2469399 24.03,39.6569399 24.03,36.2569399 C35.31,40.3769399 46.86,43.3069399 58.85,44.5169399 C98.13,48.4769399 131.41,36.9769399 157.33,6.46693987 C159.04,4.42693987 160.47,2.16693987 162.03,0.0269398656 C164.83,-0.0730601344 167.35,0.00693986563 169.87,2.03693987 Z"></path></clipPath><clipPath id="i32"><path d="M0.63,0 C10.1352632,2.66842105 19.8150416,2.87493075 29.5118778,3.0256743 L31.4514259,3.05579239 C33.391108,3.0865928 35.3310526,3.12157895 37.27,3.18 C47.2,3.48 57.11,4.33 67.61,4.97 C66.93,6.92 66.62,8.17 66.07,9.31 C60.62,20.51 55.31,31.78 49.56,42.83 C46.55,48.61 42.18,53.43 36.01,57.22 C34.72,55.5 33.3,53.94 32.27,52.15 C31.11,50.15 30.09,48.02 29.34,45.83 C25.99,36.06 20.09,27.93 13.64,20.01 C8.73,13.99 4.52,7.4 0,1.06 C0.21,0.71 0.42,0.36 0.63,0 Z"></path></clipPath><clipPath id="i33"><path d="M45.63,1.77436593 C46.55,2.45436593 47.64,2.90436593 48.66,3.44436593 C48.66,6.84436593 46.23,8.43436593 43.66,9.61436593 C40.0657143,11.2657945 36.4387755,12.8453863 32.8053061,14.410984 L27.3534694,16.7561152 C26.445102,17.1476312 25.5371429,17.5400802 24.63,17.9343659 C16.16,15.0643659 8.1,11.3843659 0,5.50436593 C1.79,5.30436593 2.65,5.10436593 3.51,5.13436593 C14.38,5.49436593 25.05,3.96436593 35.41,0.834365932 C39.2,-0.305634068 42.38,-0.525634068 45.63,1.77436593 Z"></path></clipPath></defs><g transform="translate(-196.0 -2879.0)"><g clip-path="url(#i0)"><g transform="translate(196.97000000000003 2879.710000000001)"><g transform="translate(461.33851661246763 890.04)"><g clip-path="url(#i1)"><polygon points="0,0 356.391483,0 356.391483,97.1420665 0,97.1420665 0,0" stroke="none" fill="#030303"></polygon></g></g><g transform="translate(68.0300000000002 452.28999999999905)"><g clip-path="url(#i2)"><polygon points="1.11022302e-16,-5.55111512e-17 439.779099,-5.55111512e-17 439.779099,488.305257 1.11022302e-16,488.305257 1.11022302e-16,-5.55111512e-17" stroke="none" fill="#030303"></polygon></g></g><g transform="translate(128.1305497751755 27.090000000000146)"><g clip-path="url(#i3)"><polygon points="0,0 877.21945,0 877.21945,932.381853 0,932.381853 0,0" stroke="none" fill="#FBD596"></polygon></g></g><g transform="translate(32.82912673189095 23.699999999999818)"><g clip-path="url(#i4)"><polygon points="3.10862447e-15,0 253.998428,0 253.998428,541.7 3.10862447e-15,541.7 3.10862447e-15,0" stroke="none" fill="#F296E9"></polygon></g></g><g transform="translate(71.32000000000016 10.359999999999673)"><g clip-path="url(#i5)"><polygon points="0,0 492.290149,0 492.290149,482.050373 0,482.050373 0,0" stroke="none" fill="#FE8F00"></polygon></g></g><g transform="translate(93.7773038625678 517.04)"><g clip-path="url(#i6)"><polygon points="7.32747196e-15,0 281.342696,0 281.342696,403.66 7.32747196e-15,403.66 7.32747196e-15,0" stroke="none" fill="#B3B3B3"></polygon></g></g><g transform="translate(130.9850000000001 514.3400000000001)"><g clip-path="url(#i7)"><polygon points="0.115,0 0.885,0 0.885,2.16 0.115,2.16 0.115,0" stroke="none" fill="#B3B3B3"></polygon></g></g><g transform="translate(724.2300000000005 12.731410937696637)"><g clip-path="url(#i8)"><polygon points="0,-0.000751407783 321.04613,-0.000751407783 321.04613,881.788589 0,881.788589 0,-0.000751407783" stroke="none" fill="#030303"></polygon></g></g><g transform="translate(0.0 15.646085062366183)"><g clip-path="url(#i9)"><polygon points="0,-0.00343681167 301.85529,-0.00343681167 301.85529,547.713915 0,547.713915 0,-0.00343681167" stroke="none" fill="#030303"></polygon></g></g><g transform="translate(50.250000000000455 0.0)"><g clip-path="url(#i10)"><polygon points="0,0 709.46,0 709.46,242.019117 0,242.019117 0,0" stroke="none" fill="#030303"></polygon></g></g><g transform="translate(57.26999999999998 25.63999999999987)"><g clip-path="url(#i7)"><polygon points="0,0 1.31,0 1.31,1.96 0,1.96 0,0" stroke="none" fill="#AE2EE5"></polygon></g></g><g transform="translate(817.0700000000002 893.5500000000006)"><g clip-path="url(#i11)"><polygon points="0,0 6.78,0 6.78,2.20767664 0,2.20767664 0,0" stroke="none" fill="#4CA3A5"></polygon></g></g><g transform="translate(967.1800000000003 30.409999999999847)"><g clip-path="url(#i12)"><polygon points="0,0 5.82611456,0 5.82611456,12.35 0,12.35 0,0" stroke="none" fill="#F296E9"></polygon></g></g><g transform="translate(96.0300000000002 564.3299999999999)"><g clip-path="url(#i7)"><polygon points="0,0 1.08,0 1.08,1.07 0,1.07 0,0" stroke="none" fill="#030303"></polygon></g></g><g transform="translate(95.0600000000004 563.3299999999999)"><g clip-path="url(#i7)"><polygon points="0,0 1.05,0 1.05,1.07 0,1.07 0,0" stroke="none" fill="#030303"></polygon></g></g><g transform="translate(860.5986872462477 24.159999999999854)"><g clip-path="url(#i13)"><polygon points="3.64153152e-14,0 131.3376,0 131.3376,401.63 3.64153152e-14,401.63 3.64153152e-14,0" stroke="none" fill="#F296E9"></polygon></g></g><g transform="translate(385.3299999999999 642.214803531956)"><g clip-path="url(#i14)"><polygon points="0,-8.8817842e-16 439.67,-8.8817842e-16 439.67,275.657908 0,275.657908 0,-8.8817842e-16" stroke="none" fill="#030303"></polygon></g></g><g transform="translate(916.9161237727913 571.2199999999998)"><g clip-path="url(#i15)"><polygon points="-1.55431223e-15,0 97.1480286,0 97.1480286,254.5 -1.55431223e-15,254.5 -1.55431223e-15,0" stroke="none" fill="#FE8F00"></polygon></g></g><g transform="translate(679.3813033310457 506.8480831562324)"><g clip-path="url(#i16)"><polygon points="3.04201109e-14,-8.8817842e-16 157.098697,-8.8817842e-16 157.098697,61.3879971 3.04201109e-14,61.3879971 3.04201109e-14,-8.8817842e-16" stroke="none" fill="#030303"></polygon></g></g><g transform="translate(359.1655584174405 505.2857531221861)"><g clip-path="url(#i17)"><polygon points="7.90478794e-14,5.5067062e-14 136.794442,5.5067062e-14 136.794442,58.5342469 7.90478794e-14,58.5342469 7.90478794e-14,5.5067062e-14" stroke="none" fill="#030303"></polygon></g></g><g transform="translate(338.8063438391391 675.6573615050452)"><g clip-path="url(#i18)"><polygon points="2.63677968e-14,-1.44814716e-14 96.0536562,-1.44814716e-14 96.0536562,84.1126385 2.63677968e-14,84.1126385 2.63677968e-14,-1.44814716e-14" stroke="none" fill="#030303"></polygon></g></g><g transform="translate(344.1480393053257 412.3800000000001)"><g clip-path="url(#i19)"><polygon points="-2.08721929e-14,0 81.2419607,0 81.2419607,75.48 -2.08721929e-14,75.48 -2.08721929e-14,0" stroke="none" fill="#030303"></polygon></g></g><g transform="translate(684.9868266228391 362.4108835198153)"><g clip-path="url(#i20)"><polygon points="-1.77635684e-15,2.5701663e-14 86.8431734,2.5701663e-14 86.8431734,53.2091165 -1.77635684e-15,53.2091165 -1.77635684e-15,2.5701663e-14" stroke="none" fill="#030303"></polygon></g></g><g transform="translate(807.3705036492015 648.299164944001)"><g clip-path="url(#i21)"><polygon points="1.33226763e-14,1.1574075e-14 59.0937881,1.1574075e-14 59.0937881,64.7608351 1.33226763e-14,64.7608351 1.33226763e-14,1.1574075e-14" stroke="none" fill="#030303"></polygon></g></g><g transform="translate(598.0400000000004 890.9699999999984)"><g clip-path="url(#i22)"><polygon points="0,0 109.041583,0 109.041583,38.5844149 0,38.5844149 0,0" stroke="none" fill="#B2B1B0"></polygon></g></g><g transform="translate(715.1199999999999 819.5899999999997)"><g clip-path="url(#i23)"><polygon points="0,0 36.96,0 36.96,9.8555716 0,9.8555716 0,0" stroke="none" fill="#B2B1B0"></polygon></g></g><g transform="translate(823.2200000000003 697.5799999999999)"><g clip-path="url(#i24)"><polygon points="0,0 2.64,0 2.64,3.21 0,3.21 0,0" stroke="none" fill="#618AB3"></polygon></g></g><g transform="translate(726.9900000000002 197.9000000000001)"><g clip-path="url(#i25)"><polygon points="0,0 4.09,0 4.09,3.09 0,3.09 0,0" stroke="none" fill="#9C45D9"></polygon></g></g><g transform="translate(881.27 371.9299999999998)"><g clip-path="url(#i26)"><polygon points="0,0 1.44,0 1.44,2.38 0,2.38 0,0" stroke="none" fill="#618AB3"></polygon></g></g><g transform="translate(947.2600000000002 25.75999999999976)"><g clip-path="url(#i27)"><polygon points="0,0 2.56,0 2.56,1.61 0,1.61 0,0" stroke="none" fill="#618AB3"></polygon></g></g><g transform="translate(817.98 887.3499999999995)"><g clip-path="url(#i28)"><polygon points="0,0 1.92,0 1.92,2.07 0,2.07 0,0" stroke="none" fill="#618AB3"></polygon></g></g><g transform="translate(761.1650000000004 215.4357892923199)"><g clip-path="url(#i29)"><polygon points="0.215,0.324210708 0.785,0.324210708 0.785,0.675789292 0.215,0.675789292 0.215,0.324210708" stroke="none" fill="#030303"></polygon></g></g><g transform="translate(816.7199999999998 888.8200000000006)"><g clip-path="url(#i30)"><polygon points="0,0 1.84,0 1.84,2.07 0,2.07 0,0" stroke="none" fill="#030303"></polygon></g></g><g transform="translate(284.3892262804125 369.1831350260854)"><g clip-path="url(#i7)"><polygon points="0.328583558,0.206864974 0.671416442,0.206864974 0.671416442,0.793135026 0.328583558,0.793135026 0.328583558,0.206864974" stroke="none" fill="#030303"></polygon></g></g><g transform="translate(553.1000000000004 825.35306013437)"><g clip-path="url(#i31)"><polygon points="0,-3.55028507e-14 188.22,-3.55028507e-14 188.22,62.9161574 0,62.9161574 0,-3.55028507e-14" stroke="none" fill="#FBD596"></polygon></g></g><g transform="translate(594.8900000000003 658.3900000000003)"><g clip-path="url(#i32)"><polygon points="0,0 67.61,0 67.61,57.22 0,57.22 0,0" stroke="none" fill="#F296E9"></polygon></g></g><g transform="translate(528.4700000000003 858.1456340677796)"><g clip-path="url(#i33)"><polygon points="0,1.12132525e-14 48.66,1.12132525e-14 48.66,17.9343659 0,17.9343659 0,1.12132525e-14" stroke="none" fill="#B2B1B0"></polygon></g></g></g></g></g></svg>