<?xml version="1.0" encoding="UTF-8" standalone="no"?>
<!DOCTYPE svg PUBLIC "-//W3C//DTD SVG 1.1//EN" "http://www.w3.org/Graphics/SVG/1.1/DTD/svg11.dtd">
<svg xmlns="http://www.w3.org/2000/svg" version="1.1" viewBox="0 0 512 512" width="512.0pt" height="512.0pt">
<path d="M 0.00 0.00 L 512.00 0.00 L 512.00 512.00 L 0.00 512.00 L 0.00 0.00 Z" fill="#ffffff" />
<path d="M 70.83 27.11 C 80.17 27.22 89.52 27.16 98.87 27.14 C 98.89 31.85 98.49 36.84 99.33 41.43 C 108.63 41.08 117.96 41.42 127.27 41.23 C 127.26 45.89 127.28 50.55 127.25 55.21 C 117.88 54.97 108.50 55.20 99.12 55.07 C 99.09 50.82 99.09 46.57 99.17 42.32 C 98.69 41.80 98.20 41.29 97.72 40.79 C 88.76 41.16 79.66 40.27 70.76 41.29 C 70.87 36.57 70.82 31.84 70.83 27.11 Z" fill="#000000" />
<path d="M 413.61 27.17 C 422.90 27.26 432.20 27.25 441.49 27.18 C 441.48 31.74 441.38 36.32 441.57 40.88 C 432.22 40.92 422.86 40.76 413.52 40.94 C 413.74 36.36 413.61 31.76 413.61 27.17 Z" fill="#101010" />
<path d="M 56.37 41.38 C 61.17 41.31 65.97 41.46 70.76 41.29 C 70.18 50.72 70.52 60.27 70.61 69.72 C 71.10 79.20 69.76 88.59 70.48 98.08 C 70.57 102.78 70.41 107.46 70.63 112.16 L 70.64 112.44 C 70.42 145.73 70.60 179.02 70.55 212.31 L 68.88 212.30 C 68.87 198.87 68.81 185.43 68.93 172.00 C 69.59 152.99 68.53 134.02 68.95 115.01 C 69.21 109.33 69.43 103.68 69.06 98.01 C 64.83 97.89 60.62 97.89 56.39 98.00 C 56.34 79.13 56.36 60.25 56.37 41.38 Z" fill="#1b1b1b" />
<path d="M 70.76 41.29 C 79.66 40.27 88.76 41.16 97.72 40.79 C 98.20 41.29 98.69 41.80 99.17 42.32 C 99.09 46.57 99.09 50.82 99.12 55.07 C 108.50 55.20 117.88 54.97 127.25 55.21 L 127.71 55.22 C 127.58 59.99 127.58 64.77 127.59 69.55 C 123.53 69.54 119.47 69.61 115.42 69.69 L 114.93 69.66 L 113.34 69.60 C 103.80 69.45 94.24 69.56 84.70 69.55 C 80.00 69.56 75.31 69.57 70.61 69.72 C 70.52 60.27 70.18 50.72 70.76 41.29 Z" fill="#357d92" />
<path d="M 384.95 41.34 C 394.46 41.41 403.98 41.23 413.48 41.45 C 413.15 45.99 413.21 50.52 413.22 55.06 C 403.90 55.31 394.52 54.72 385.23 55.37 C 384.33 60.10 384.70 64.62 384.79 69.39 C 380.07 69.51 375.33 69.39 370.63 69.69 C 370.68 64.88 370.62 60.08 370.62 55.28 C 375.32 55.28 380.11 55.62 384.78 55.07 C 385.15 50.52 384.91 45.91 384.95 41.34 Z" fill="#131313" />
<path d="M 413.52 40.94 C 422.86 40.76 432.22 40.92 441.57 40.88 L 441.60 41.47 C 442.12 50.84 441.77 60.25 441.83 69.63 C 437.35 69.57 432.88 69.65 428.40 69.78 L 427.68 69.73 C 418.08 69.29 408.43 69.62 398.82 69.57 C 398.82 74.28 398.82 79.00 398.82 83.71 C 394.15 83.71 389.49 83.71 384.82 83.73 C 384.81 88.50 384.81 93.28 384.80 98.06 C 380.00 98.11 375.21 98.11 370.41 98.10 C 370.43 102.88 370.47 107.62 370.35 112.40 C 365.64 112.44 360.93 112.30 356.23 112.46 C 356.04 117.12 356.21 121.81 356.15 126.48 C 356.07 131.23 356.14 135.98 356.16 140.73 C 360.85 140.73 365.54 140.72 370.23 140.76 C 375.08 140.83 379.92 140.83 384.77 140.72 C 384.89 136.00 384.91 131.29 384.86 126.58 C 394.29 126.64 403.73 126.42 413.16 126.51 C 417.69 126.46 422.29 126.82 426.79 126.39 C 428.04 122.11 427.11 116.79 427.36 112.29 C 427.38 107.60 427.38 102.91 427.44 98.22 L 427.44 97.84 C 432.23 98.11 436.99 98.17 441.78 98.05 C 441.80 107.64 441.87 117.24 441.87 126.83 C 441.87 145.83 441.85 164.84 441.89 183.85 C 441.84 188.57 441.84 193.29 442.01 198.01 C 446.87 198.20 451.71 198.21 456.58 198.08 C 456.72 202.98 456.62 207.76 456.21 212.65 C 456.02 222.12 456.25 231.60 456.12 241.07 C 456.00 255.17 456.19 269.27 456.13 283.36 C 460.83 283.58 465.49 283.58 470.19 283.37 L 470.21 283.86 C 470.51 307.47 470.49 331.15 470.17 354.77 C 465.47 355.26 460.78 355.09 456.07 355.21 C 455.77 359.74 456.09 364.24 455.64 368.77 C 450.96 369.73 446.52 369.33 441.80 369.25 C 437.33 369.22 432.67 368.76 428.25 369.46 C 427.06 370.30 427.31 371.67 427.12 372.97 C 426.90 376.60 427.35 380.20 427.81 383.80 L 427.42 383.80 C 422.71 383.82 418.00 383.82 413.28 383.84 C 413.39 379.13 413.31 374.43 413.44 369.73 C 403.90 369.25 394.31 369.55 384.77 369.44 C 384.77 364.68 384.77 359.92 384.78 355.17 C 375.24 355.17 365.70 355.18 356.16 355.16 C 356.15 350.41 356.15 345.65 356.14 340.90 C 351.37 340.88 346.59 340.88 341.82 340.87 C 341.80 336.11 341.79 331.34 341.85 326.57 C 332.31 326.51 322.77 326.56 313.23 326.55 C 313.26 321.79 313.26 317.03 313.22 312.27 C 308.45 312.29 303.69 312.28 298.92 312.26 C 298.92 307.53 298.92 302.80 298.92 298.07 C 294.16 298.05 289.41 298.08 284.65 298.17 L 284.18 298.05 C 284.75 293.05 284.52 288.28 284.53 283.25 C 284.54 278.65 284.55 274.05 284.54 269.45 C 279.82 269.45 275.10 269.53 270.39 269.39 C 270.41 264.79 270.41 260.19 270.41 255.59 C 270.40 245.91 270.40 236.23 270.40 226.54 C 265.61 226.54 260.81 226.55 256.02 226.55 C 255.85 207.51 255.99 188.47 255.94 169.43 C 251.18 169.44 246.41 169.45 241.65 169.42 C 241.71 150.59 241.48 131.75 241.69 112.93 L 241.70 112.32 C 270.29 112.35 298.88 112.35 327.47 112.30 C 327.53 107.61 327.53 102.93 327.38 98.25 L 327.85 98.23 C 332.49 98.05 337.12 98.06 341.75 97.96 C 341.74 93.21 341.37 88.74 342.20 84.14 C 344.79 83.67 347.38 83.51 350.00 83.56 C 356.71 83.69 363.42 83.62 370.13 83.67 C 370.27 79.02 370.28 74.37 370.16 69.72 L 370.63 69.69 C 375.33 69.39 380.07 69.51 384.79 69.39 C 384.70 64.62 384.33 60.10 385.23 55.37 C 394.52 54.72 403.90 55.31 413.22 55.06 C 413.21 50.52 413.15 45.99 413.48 41.45 L 413.52 40.94 Z" fill="#357d92" />
<path d="M 455.93 41.39 C 455.96 69.87 455.93 98.36 455.94 126.84 C 451.23 126.61 446.58 126.60 441.87 126.83 C 441.87 117.24 441.80 107.64 441.78 98.05 C 441.76 93.31 441.78 88.57 441.82 83.84 C 441.86 79.57 441.83 75.30 441.75 71.03 C 437.23 71.04 432.80 71.03 428.40 69.78 C 432.88 69.65 437.35 69.57 441.83 69.63 C 441.77 60.25 442.12 50.84 441.60 41.47 C 446.37 41.32 451.16 41.38 455.93 41.39 Z" fill="#1e2223" />
<path d="M 127.71 55.22 C 132.33 55.32 136.94 55.29 141.56 55.23 C 141.53 59.99 141.56 64.75 141.52 69.51 C 136.88 69.57 132.23 69.54 127.59 69.55 C 127.58 64.77 127.58 59.99 127.71 55.22 Z" fill="#000000" />
<path d="M 70.61 69.72 C 75.31 69.57 80.00 69.56 84.70 69.55 C 84.65 74.31 84.65 79.07 84.66 83.83 C 80.03 83.69 75.42 83.69 70.79 83.81 C 70.73 88.57 70.69 93.33 70.48 98.08 C 69.76 88.59 71.10 79.20 70.61 69.72 Z" fill="#2a2c2d" />
<path d="M 84.70 69.55 C 94.24 69.56 103.80 69.45 113.34 69.60 C 113.36 74.28 113.36 78.96 113.34 83.64 C 118.09 83.61 122.83 83.63 127.58 83.61 C 127.61 88.45 127.47 93.31 127.73 98.13 C 132.41 98.08 137.09 98.12 141.77 98.08 C 141.77 102.45 141.77 106.82 141.77 111.19 L 141.77 112.38 C 146.60 112.35 151.43 112.45 156.26 112.34 L 156.20 113.73 C 151.41 113.45 146.70 113.44 141.91 113.68 C 141.81 117.94 141.83 122.18 141.98 126.44 C 137.21 126.36 132.45 126.49 127.68 126.55 C 122.86 126.56 118.04 126.54 113.22 126.55 C 113.43 121.78 113.45 117.04 113.13 112.27 C 108.46 112.39 103.82 112.32 99.16 111.97 C 98.98 107.36 98.89 102.75 98.88 98.14 C 94.14 98.08 89.40 98.07 84.66 98.10 C 84.65 93.34 84.66 88.58 84.66 83.83 C 84.65 79.07 84.65 74.31 84.70 69.55 Z" fill="#000000" />
<path d="M 114.93 69.66 L 115.42 69.69 C 119.50 70.67 123.61 70.92 127.79 70.96 C 127.78 74.63 127.75 78.30 127.70 81.98 C 123.43 82.23 119.22 82.27 114.95 82.11 C 114.87 77.96 114.87 73.81 114.93 69.66 Z" fill="#f2f2f2" />
<path d="M 141.80 69.84 C 151.23 69.81 160.65 69.85 170.08 69.82 C 170.07 74.25 170.14 78.65 169.97 83.07 C 170.30 83.38 170.62 83.69 170.94 84.00 C 175.48 83.85 180.00 83.91 184.54 83.91 C 184.51 88.50 184.62 93.06 184.38 97.64 C 188.26 98.59 192.00 98.21 196.00 98.26 C 211.32 98.28 226.63 98.20 241.95 98.30 C 241.84 102.97 241.79 107.64 241.70 112.32 C 222.73 112.35 203.75 112.28 184.78 112.32 C 184.78 107.52 184.88 102.67 184.64 97.88 C 179.88 98.17 175.11 98.13 170.35 98.08 C 170.29 93.76 170.46 89.45 170.31 85.14 C 170.10 84.37 169.61 83.88 168.84 83.68 C 164.63 83.52 160.42 83.69 156.21 83.66 C 151.40 83.66 146.59 83.64 141.78 83.67 C 141.77 79.06 141.75 74.45 141.80 69.84 Z" fill="#000000" />
<path d="M 342.07 69.84 C 351.43 69.78 360.81 70.01 370.16 69.72 C 370.28 74.37 370.27 79.02 370.13 83.67 C 363.42 83.62 356.71 83.69 350.00 83.56 C 347.38 83.51 344.79 83.67 342.20 84.14 C 341.37 88.74 341.74 93.21 341.75 97.96 C 337.12 98.06 332.49 98.05 327.85 98.23 C 327.83 93.46 327.85 88.68 327.84 83.91 C 332.48 83.87 337.17 84.10 341.80 83.75 C 342.13 79.13 341.91 74.47 342.07 69.84 Z" fill="#1a1c1c" />
<path d="M 398.82 69.57 C 408.43 69.62 418.08 69.29 427.68 69.73 C 427.52 74.42 427.48 79.11 427.49 83.80 C 427.47 88.48 427.47 93.16 427.44 97.84 L 427.44 98.22 C 422.72 98.06 418.09 97.91 413.37 98.28 C 413.13 102.43 413.61 106.76 412.89 110.85 C 411.94 112.38 410.58 112.03 409.02 112.24 C 405.72 112.40 402.39 112.29 399.09 112.27 C 398.77 116.82 398.76 121.24 399.09 125.78 C 403.79 125.83 408.48 125.84 413.18 125.79 L 413.16 126.51 C 403.73 126.42 394.29 126.64 384.86 126.58 C 380.10 126.57 375.35 126.57 370.59 126.63 C 370.18 121.88 370.16 117.16 370.35 112.40 C 370.47 107.62 370.43 102.88 370.41 98.10 C 375.21 98.11 380.00 98.11 384.80 98.06 C 384.81 93.28 384.81 88.50 384.82 83.73 C 389.49 83.71 394.15 83.71 398.82 83.71 C 398.82 79.00 398.82 74.28 398.82 69.57 Z" fill="#000000" />
<path d="M 427.68 69.73 L 428.40 69.78 C 432.80 71.03 437.23 71.04 441.75 71.03 C 441.83 75.30 441.86 79.57 441.82 83.84 C 437.04 83.73 432.27 83.72 427.49 83.80 C 427.48 79.11 427.52 74.42 427.68 69.73 Z" fill="#232a2c" />
<path d="M 70.79 83.81 C 75.42 83.69 80.03 83.69 84.66 83.83 C 84.66 88.58 84.65 93.34 84.66 98.10 C 79.94 98.11 75.21 98.10 70.48 98.08 C 70.69 93.33 70.73 88.57 70.79 83.81 Z" fill="#4b4b4b" />
<path d="M 128.89 83.85 C 132.90 83.73 137.72 83.03 141.52 84.48 C 142.31 88.47 141.65 92.88 142.16 96.93 C 145.58 98.86 150.88 97.24 154.73 98.28 C 155.63 98.66 156.08 99.24 156.10 100.02 C 156.66 103.62 156.30 107.49 156.14 111.12 C 151.34 111.35 146.58 111.37 141.77 111.19 C 141.77 106.82 141.77 102.45 141.77 98.08 C 137.09 98.12 132.41 98.08 127.73 98.13 C 129.25 93.32 128.77 88.81 128.89 83.85 Z" fill="#f2f2f2" />
<path d="M 156.21 83.66 C 160.42 83.69 164.63 83.52 168.84 83.68 C 169.61 83.88 170.10 84.37 170.31 85.14 C 170.46 89.45 170.29 93.76 170.35 98.08 C 175.11 98.13 179.88 98.17 184.64 97.88 C 184.88 102.67 184.78 107.52 184.78 112.32 C 203.75 112.28 222.73 112.35 241.70 112.32 L 241.69 112.93 C 241.48 117.43 241.27 121.93 241.09 126.44 C 231.76 126.84 222.43 126.57 213.08 126.70 C 208.35 126.63 203.62 126.57 198.89 126.73 C 198.86 122.46 198.92 118.18 198.75 113.91 L 198.69 113.02 C 193.89 112.75 189.08 112.83 184.27 112.60 C 179.54 112.24 174.88 112.08 170.14 112.12 C 170.31 107.46 170.28 102.85 169.97 98.20 C 165.39 98.15 160.81 98.08 156.23 97.98 C 156.20 93.20 156.20 88.43 156.21 83.66 Z" fill="#dcdcdc" />
<path d="M 427.49 83.80 C 432.27 83.72 437.04 83.73 441.82 83.84 C 441.78 88.57 441.76 93.31 441.78 98.05 C 436.99 98.17 432.23 98.11 427.44 97.84 C 427.47 93.16 427.47 88.48 427.49 83.80 Z" fill="#314349" />
<path d="M 56.39 98.00 C 60.62 97.89 64.83 97.89 69.06 98.01 C 69.43 103.68 69.21 109.33 68.95 115.01 C 68.53 134.02 69.59 152.99 68.93 172.00 C 68.81 185.43 68.87 198.87 68.88 212.30 C 64.77 212.26 60.66 212.28 56.55 212.52 C 56.39 209.69 56.36 206.84 56.37 204.00 C 56.42 168.67 56.40 133.34 56.39 98.00 Z" fill="#242424" />
<path d="M 70.48 98.08 C 75.21 98.10 79.94 98.11 84.66 98.10 C 84.65 102.84 84.66 107.58 84.64 112.32 C 79.95 112.53 75.31 112.51 70.63 112.16 C 70.41 107.46 70.57 102.78 70.48 98.08 Z" fill="#d3d3d3" />
<path d="M 84.66 98.10 C 89.40 98.07 94.14 98.08 98.88 98.14 C 98.89 102.75 98.98 107.36 99.16 111.97 C 103.82 112.32 108.46 112.39 113.13 112.27 C 113.45 117.04 113.43 121.78 113.22 126.55 C 108.44 126.56 103.67 126.55 98.89 126.56 C 99.08 121.81 99.13 117.06 98.96 112.30 C 94.18 112.33 89.41 112.32 84.64 112.32 C 84.66 107.58 84.65 102.84 84.66 98.10 Z" fill="#1e1e1e" />
<path d="M 241.95 98.30 C 270.42 98.32 298.91 98.38 327.38 98.25 C 327.53 102.93 327.53 107.61 327.47 112.30 C 298.88 112.35 270.29 112.35 241.70 112.32 C 241.79 107.64 241.84 102.97 241.95 98.30 Z" fill="#141414" />
<path d="M 413.37 98.28 C 418.09 97.91 422.72 98.06 427.44 98.22 C 427.38 102.91 427.38 107.60 427.36 112.29 C 422.71 112.36 418.05 112.23 413.39 112.41 C 413.23 116.87 413.33 121.33 413.18 125.79 C 408.48 125.84 403.79 125.83 399.09 125.78 C 398.76 121.24 398.77 116.82 399.09 112.27 C 402.39 112.29 405.72 112.40 409.02 112.24 C 410.58 112.03 411.94 112.38 412.89 110.85 C 413.61 106.76 413.13 102.43 413.37 98.28 Z" fill="#0f0f0f" />
<path d="M 70.63 112.16 C 75.31 112.51 79.95 112.53 84.64 112.32 C 84.62 117.06 84.63 121.80 84.59 126.54 C 89.36 126.60 94.13 126.60 98.89 126.56 L 98.92 127.89 C 94.27 127.83 89.63 127.86 84.98 128.00 C 84.85 132.32 84.85 136.64 84.88 140.96 C 84.73 159.92 84.94 178.89 84.77 197.85 C 80.51 197.93 76.27 198.12 72.02 198.43 C 71.60 171.96 72.21 145.47 71.66 119.00 C 71.60 116.76 71.12 114.61 70.64 112.44 L 70.63 112.16 Z" fill="#f5f5f5" />
<path d="M 84.64 112.32 C 89.41 112.32 94.18 112.33 98.96 112.30 C 99.13 117.06 99.08 121.81 98.89 126.56 C 94.13 126.60 89.36 126.60 84.59 126.54 C 84.63 121.80 84.62 117.06 84.64 112.32 Z" fill="#505050" />
<path d="M 156.26 112.34 L 156.84 112.31 C 156.80 116.87 156.70 121.52 157.00 126.07 L 157.94 126.25 C 162.09 126.67 166.12 126.48 170.27 126.31 C 170.34 131.19 170.32 136.08 170.31 140.96 C 165.63 140.89 160.96 140.85 156.28 140.82 C 156.31 136.03 156.31 131.24 156.23 126.45 C 156.19 122.21 156.16 117.97 156.20 113.73 L 156.26 112.34 Z" fill="#cecece" />
<path d="M 158.05 112.27 C 162.05 112.04 166.12 112.12 170.14 112.12 C 174.88 112.08 179.54 112.24 184.27 112.60 C 179.63 112.61 174.99 112.86 170.36 113.06 C 170.32 117.48 170.24 121.89 170.27 126.31 C 166.12 126.48 162.09 126.67 157.94 126.25 C 157.72 121.57 157.57 116.94 158.05 112.27 Z" fill="#f2f2f2" />
<path d="M 356.23 112.46 C 360.93 112.30 365.64 112.44 370.35 112.40 C 370.16 117.16 370.18 121.88 370.59 126.63 L 370.18 126.63 C 365.50 126.72 360.82 126.48 356.15 126.48 C 356.21 121.81 356.04 117.12 356.23 112.46 Z" fill="#0f0f0f" />
<path d="M 413.39 112.41 C 418.05 112.23 422.71 112.36 427.36 112.29 C 427.11 116.79 428.04 122.11 426.79 126.39 C 422.29 126.82 417.69 126.46 413.16 126.51 L 413.18 125.79 C 413.33 121.33 413.23 116.87 413.39 112.41 Z" fill="#2a373b" />
<path d="M 70.64 112.44 C 71.12 114.61 71.60 116.76 71.66 119.00 C 72.21 145.47 71.60 171.96 72.02 198.43 C 76.27 198.12 80.51 197.93 84.77 197.85 C 84.94 178.89 84.73 159.92 84.88 140.96 C 89.58 140.96 94.27 140.93 98.97 140.87 C 103.70 140.83 108.44 140.82 113.17 140.81 C 117.98 140.81 122.79 140.83 127.61 140.82 C 127.34 145.55 127.27 150.27 127.35 155.01 C 132.18 155.38 137.00 155.35 141.84 155.27 C 146.63 155.29 151.42 155.31 156.21 155.26 C 160.87 155.29 165.53 155.31 170.19 155.16 C 170.40 150.43 170.37 145.70 170.31 140.96 C 170.32 136.08 170.34 131.19 170.27 126.31 C 170.24 121.89 170.32 117.48 170.36 113.06 C 174.99 112.86 179.63 112.61 184.27 112.60 C 189.08 112.83 193.89 112.75 198.69 113.02 L 198.75 113.91 C 194.12 113.75 189.51 113.76 184.87 113.93 C 184.66 118.20 184.70 122.37 185.04 126.63 C 189.66 126.65 194.27 126.70 198.89 126.73 C 198.80 131.46 198.83 136.17 199.00 140.89 C 203.86 141.04 208.71 141.07 213.57 141.00 C 222.04 140.75 230.55 141.24 239.01 140.84 C 239.73 140.91 240.26 140.54 240.62 139.75 C 241.18 135.37 240.84 130.86 241.09 126.44 C 241.27 121.93 241.48 117.43 241.69 112.93 C 241.48 131.75 241.71 150.59 241.65 169.42 C 246.41 169.45 251.18 169.44 255.94 169.43 C 255.99 188.47 255.85 207.51 256.02 226.55 C 260.81 226.55 265.61 226.54 270.40 226.54 C 270.40 236.23 270.40 245.91 270.41 255.59 C 261.01 254.33 251.34 255.10 241.87 255.06 C 241.54 259.87 241.58 264.53 242.01 269.34 C 237.29 269.61 232.56 269.68 227.82 269.78 C 227.60 274.27 227.60 278.71 227.82 283.20 C 239.21 283.54 250.61 283.37 262.00 283.42 C 269.51 283.33 277.04 283.64 284.53 283.25 C 284.52 288.28 284.75 293.05 284.18 298.05 C 265.30 298.17 246.41 298.12 227.53 298.08 C 227.52 302.80 227.54 307.52 227.52 312.23 C 227.55 316.44 227.16 320.72 227.57 324.90 C 227.62 325.45 227.84 325.95 228.23 326.42 C 232.70 326.92 237.28 326.52 241.78 326.62 C 251.38 326.66 260.98 326.62 270.58 326.64 C 270.59 321.82 270.45 316.96 270.72 312.14 C 271.79 316.94 271.48 321.50 271.57 326.37 C 275.96 326.63 280.26 326.59 284.65 326.17 C 284.61 321.52 284.59 316.88 284.58 312.23 C 284.59 307.70 284.43 303.23 284.89 298.70 C 285.23 299.23 285.57 299.77 285.92 300.29 C 285.75 304.24 285.72 308.16 285.87 312.11 C 290.22 312.22 294.57 312.26 298.92 312.26 C 303.69 312.28 308.45 312.29 313.22 312.27 C 313.26 317.03 313.26 321.79 313.23 326.55 C 322.77 326.56 332.31 326.51 341.85 326.57 C 341.79 331.34 341.80 336.11 341.82 340.87 C 346.59 340.88 351.37 340.88 356.14 340.90 C 356.15 345.65 356.15 350.41 356.16 355.16 C 365.70 355.18 375.24 355.17 384.78 355.17 C 384.77 359.92 384.77 364.68 384.77 369.44 C 394.31 369.55 403.90 369.25 413.44 369.73 C 408.55 370.86 403.81 370.65 398.84 370.76 C 398.51 379.71 398.94 388.65 398.60 397.60 C 394.02 397.68 389.45 397.76 384.87 397.87 C 384.67 402.68 384.66 407.47 384.82 412.28 L 384.14 412.29 C 374.84 412.03 365.47 412.03 356.17 412.31 C 355.82 416.68 356.30 421.24 355.50 425.54 C 353.65 426.53 351.05 426.29 349.00 426.39 C 341.99 426.29 335.00 426.48 327.99 426.12 C 327.87 421.58 327.78 417.05 327.59 412.52 C 332.34 412.39 337.09 412.30 341.84 412.16 C 341.89 407.41 341.87 402.66 341.82 397.91 C 341.79 393.19 341.81 388.47 341.80 383.75 C 346.55 383.75 351.31 383.75 356.06 383.75 C 356.18 378.93 356.18 374.12 356.06 369.30 C 351.33 369.29 346.60 369.30 341.87 369.30 C 337.10 369.29 332.32 369.32 327.55 369.26 C 318.07 369.13 308.58 369.12 299.10 369.29 C 289.58 369.33 280.06 369.28 270.54 369.31 C 270.55 364.57 270.56 359.82 270.52 355.08 C 270.49 350.40 270.46 345.71 270.48 341.03 C 270.53 336.48 270.55 331.93 270.49 327.38 C 260.92 327.38 251.32 327.22 241.76 327.46 C 241.73 331.98 241.75 336.49 241.78 341.01 C 241.78 345.72 241.73 350.43 241.77 355.15 C 232.30 354.94 222.76 354.65 213.31 355.21 C 213.16 359.76 213.18 364.32 212.87 368.88 C 203.53 369.54 194.17 368.97 184.80 369.27 C 179.94 369.32 175.07 369.29 170.21 369.30 C 165.59 369.33 160.96 369.19 156.35 369.35 C 156.18 374.15 156.32 378.96 156.29 383.76 C 160.95 383.75 165.61 383.75 170.28 383.74 C 170.26 388.47 170.29 393.19 170.26 397.91 C 170.22 402.65 170.19 407.39 170.22 412.13 C 175.03 412.35 179.84 412.41 184.65 412.38 C 184.74 416.99 184.78 421.59 184.80 426.20 C 175.49 426.16 166.15 425.97 156.84 426.39 L 156.25 426.41 C 156.32 421.67 156.33 416.94 156.09 412.20 C 151.39 412.18 146.70 412.15 142.00 412.07 C 141.97 407.35 141.93 402.63 141.87 397.92 C 137.20 397.67 132.54 397.70 127.87 397.78 C 123.13 397.79 118.40 397.73 113.67 397.79 C 113.38 393.15 113.27 388.51 113.19 383.86 C 108.52 383.71 103.85 383.68 99.18 383.74 C 99.16 378.90 99.10 374.07 98.94 369.23 C 94.26 369.24 89.58 369.20 84.90 369.10 C 84.65 359.74 84.96 350.37 84.75 341.00 C 80.60 340.79 76.39 340.97 72.25 340.53 C 70.54 340.61 70.90 338.13 70.68 337.02 C 70.60 305.17 70.68 272.65 70.60 240.89 C 70.57 236.17 70.56 231.44 70.56 226.71 C 70.56 221.91 70.56 217.11 70.55 212.31 C 70.60 179.02 70.42 145.73 70.64 112.44 Z" fill="#ffffff" />
<path d="M 141.91 113.68 C 146.70 113.44 151.41 113.45 156.20 113.73 C 156.16 117.97 156.19 122.21 156.23 126.45 C 151.48 126.58 146.73 126.55 141.98 126.44 C 141.83 122.18 141.81 117.94 141.91 113.68 Z" fill="#1f1f1f" />
<path d="M 184.87 113.93 C 189.51 113.76 194.12 113.75 198.75 113.91 C 198.92 118.18 198.86 122.46 198.89 126.73 C 194.27 126.70 189.66 126.65 185.04 126.63 C 184.70 122.37 184.66 118.20 184.87 113.93 Z" fill="#eeeeee" />
<path d="M 141.98 126.44 C 146.73 126.55 151.48 126.58 156.23 126.45 C 156.31 131.24 156.31 136.03 156.28 140.82 C 151.47 140.80 146.66 140.81 141.84 140.81 C 141.80 136.17 141.78 131.53 141.81 126.89 C 137.10 126.77 132.39 126.68 127.68 126.55 C 132.45 126.49 137.21 126.36 141.98 126.44 Z" fill="#505050" />
<path d="M 241.09 126.44 C 240.84 130.86 241.18 135.37 240.62 139.75 C 240.26 140.54 239.73 140.91 239.01 140.84 C 230.55 141.24 222.04 140.75 213.57 141.00 C 213.01 136.24 212.94 131.49 213.08 126.70 C 222.43 126.57 231.76 126.84 241.09 126.44 Z" fill="#ededed" />
<path d="M 356.15 126.48 C 360.82 126.48 365.50 126.72 370.18 126.63 C 370.34 131.35 370.35 136.05 370.23 140.76 C 365.54 140.72 360.85 140.73 356.16 140.73 C 356.14 135.98 356.07 131.23 356.15 126.48 Z" fill="#2b383b" />
<path d="M 98.89 126.56 C 103.67 126.55 108.44 126.56 113.22 126.55 C 113.34 131.31 113.33 136.05 113.17 140.81 C 108.44 140.82 103.70 140.83 98.97 140.87 C 99.01 136.55 99.01 132.22 98.92 127.89 L 98.89 126.56 Z" fill="#dcdcdc" />
<path d="M 113.22 126.55 C 118.04 126.54 122.86 126.56 127.68 126.55 C 127.54 131.30 127.53 136.06 127.61 140.82 C 122.79 140.83 117.98 140.81 113.17 140.81 C 113.33 136.05 113.34 131.31 113.22 126.55 Z" fill="#b8b8b8" />
<path d="M 127.68 126.55 C 132.39 126.68 137.10 126.77 141.81 126.89 C 141.78 131.53 141.80 136.17 141.84 140.81 C 137.10 140.79 132.35 140.79 127.61 140.82 C 127.53 136.06 127.54 131.30 127.68 126.55 Z" fill="#828282" />
<path d="M 198.89 126.73 C 203.62 126.57 208.35 126.63 213.08 126.70 C 212.94 131.49 213.01 136.24 213.57 141.00 C 208.71 141.07 203.86 141.04 199.00 140.89 C 198.83 136.17 198.80 131.46 198.89 126.73 Z" fill="#f6f6f6" />
<path d="M 370.18 126.63 L 370.59 126.63 C 375.35 126.57 380.10 126.57 384.86 126.58 C 384.91 131.29 384.89 136.00 384.77 140.72 C 379.92 140.83 375.08 140.83 370.23 140.76 C 370.35 136.05 370.34 131.35 370.18 126.63 Z" fill="#3b6672" />
<path d="M 441.87 126.83 C 446.58 126.60 451.23 126.61 455.94 126.84 C 456.10 145.81 455.66 164.83 456.17 183.78 C 451.41 183.78 446.65 183.79 441.89 183.85 C 441.85 164.84 441.87 145.83 441.87 126.83 Z" fill="#2b383c" />
<path d="M 84.98 128.00 C 89.63 127.86 94.27 127.83 98.92 127.89 C 99.01 132.22 99.01 136.55 98.97 140.87 C 94.27 140.93 89.58 140.96 84.88 140.96 C 84.85 136.64 84.85 132.32 84.98 128.00 Z" fill="#eeeeee" />
<path d="M 127.61 140.82 C 132.35 140.79 137.10 140.79 141.84 140.81 C 141.77 145.63 141.76 150.45 141.84 155.27 C 137.00 155.35 132.18 155.38 127.35 155.01 C 127.27 150.27 127.34 145.55 127.61 140.82 Z" fill="#eeeeee" />
<path d="M 141.84 140.81 C 146.66 140.81 151.47 140.80 156.28 140.82 C 156.31 145.63 156.30 150.45 156.21 155.26 C 151.42 155.31 146.63 155.29 141.84 155.27 C 141.76 150.45 141.77 145.63 141.84 140.81 Z" fill="#dcdcdc" />
<path d="M 156.28 140.82 C 160.96 140.85 165.63 140.89 170.31 140.96 C 170.37 145.70 170.40 150.43 170.19 155.16 C 165.53 155.31 160.87 155.29 156.21 155.26 C 156.30 150.45 156.31 145.63 156.28 140.82 Z" fill="#ededed" />
<path d="M 441.89 183.85 C 446.65 183.79 451.41 183.78 456.17 183.78 C 456.66 188.55 456.51 193.30 456.58 198.08 C 451.71 198.21 446.87 198.20 442.01 198.01 C 441.84 193.29 441.84 188.57 441.89 183.85 Z" fill="#3b7180" />
<path d="M 56.55 212.52 C 60.66 212.28 64.77 212.26 68.88 212.30 L 70.55 212.31 C 70.56 217.11 70.56 221.91 70.56 226.71 C 65.74 226.54 60.93 226.53 56.12 226.64 C 56.13 221.94 56.16 217.24 56.05 212.55 L 56.55 212.52 Z" fill="#898989" />
<path d="M 42.34 212.60 C 43.01 235.98 42.11 259.58 42.80 282.95 C 46.63 284.25 51.96 283.25 56.10 283.55 C 56.09 288.40 56.14 293.25 56.09 298.10 C 51.43 298.13 46.77 298.12 42.11 298.04 C 42.10 293.31 42.08 288.58 42.18 283.85 C 42.41 260.10 42.03 236.34 42.34 212.60 Z" fill="#7b7b7b" />
<path d="M 42.34 212.60 C 46.91 212.63 51.48 212.71 56.05 212.55 C 56.16 217.24 56.13 221.94 56.12 226.64 C 56.11 231.37 56.12 236.11 56.11 240.85 C 56.10 255.08 56.13 269.32 56.10 283.55 C 51.96 283.25 46.63 284.25 42.80 282.95 C 42.11 259.58 43.01 235.98 42.34 212.60 Z" fill="#1b1b1b" />
<path d="M 456.21 212.65 C 460.84 212.62 465.46 212.64 470.09 212.62 C 470.08 222.09 470.08 231.55 470.09 241.02 C 465.68 240.92 461.27 240.92 456.86 241.06 L 456.12 241.07 C 456.25 231.60 456.02 222.12 456.21 212.65 Z" fill="#1e2223" />
<path d="M 56.12 226.64 C 60.93 226.53 65.74 226.54 70.56 226.71 C 70.56 231.44 70.57 236.17 70.60 240.89 C 65.77 240.82 60.95 240.81 56.11 240.85 C 56.12 236.11 56.11 231.37 56.12 226.64 Z" fill="#c3c3c3" />
<path d="M 56.11 240.85 C 60.95 240.81 65.77 240.82 70.60 240.89 C 70.68 272.65 70.60 305.17 70.68 337.02 C 70.90 338.13 70.54 340.61 72.25 340.53 C 76.39 340.97 80.60 340.79 84.75 341.00 C 84.96 350.37 84.65 359.74 84.90 369.10 C 89.58 369.20 94.26 369.24 98.94 369.23 C 99.10 374.07 99.16 378.90 99.18 383.74 C 103.85 383.68 108.52 383.71 113.19 383.86 C 113.27 388.51 113.38 393.15 113.67 397.79 L 113.25 397.79 C 108.46 397.80 103.68 397.77 98.89 397.76 C 98.92 393.87 99.41 389.87 98.97 386.01 C 98.87 385.11 98.50 384.46 97.89 384.08 C 93.45 383.48 88.93 383.76 84.47 383.27 C 84.84 378.60 84.90 374.03 84.66 369.35 C 80.41 369.13 76.19 369.08 71.94 369.18 C 71.73 374.16 72.24 378.67 70.80 383.41 C 70.45 378.72 70.56 373.98 70.66 369.28 C 71.06 359.84 70.49 350.41 70.71 340.97 C 65.91 340.79 61.11 340.71 56.31 340.64 C 55.90 326.48 56.18 312.27 56.09 298.10 C 56.14 293.25 56.09 288.40 56.10 283.55 C 56.13 269.32 56.10 255.08 56.11 240.85 Z" fill="#ededed" />
<path d="M 141.92 240.90 C 160.97 240.63 180.03 240.81 199.09 240.83 C 199.16 245.57 199.15 250.30 199.07 255.04 C 194.31 255.07 189.54 255.07 184.77 255.10 C 170.43 255.12 156.09 255.12 141.75 255.10 C 141.73 250.37 141.77 245.64 141.92 240.90 Z" fill="#ededed" />
<path d="M 199.09 240.83 C 203.75 240.76 208.40 240.74 213.06 240.93 C 213.42 255.18 214.78 269.09 213.53 283.48 C 212.82 274.01 213.52 264.54 213.08 255.04 C 208.41 254.94 203.74 254.93 199.07 255.04 C 199.15 250.30 199.16 245.57 199.09 240.83 Z" fill="#f6f6f6" />
<path d="M 456.12 241.07 L 456.86 241.06 C 456.51 250.54 456.41 260.13 456.86 269.61 C 461.27 269.64 465.69 269.66 470.10 269.73 C 470.11 274.28 470.04 278.84 470.19 283.37 C 465.49 283.58 460.83 283.58 456.13 283.36 C 456.19 269.27 456.00 255.17 456.12 241.07 Z" fill="#36464a" />
<path d="M 456.86 241.06 C 461.27 240.92 465.68 240.92 470.09 241.02 C 470.11 250.59 470.09 260.16 470.10 269.73 C 465.69 269.66 461.27 269.64 456.86 269.61 C 456.41 260.13 456.51 250.54 456.86 241.06 Z" fill="#2b383c" />
<path d="M 140.17 255.08 C 140.37 259.57 140.51 264.07 140.61 268.57 C 136.18 268.53 131.77 268.35 127.36 268.01 C 127.32 263.83 127.22 259.56 127.52 255.39 C 131.73 254.79 135.94 254.89 140.17 255.08 Z" fill="#ededed" />
<path d="M 141.75 255.10 C 156.09 255.12 170.43 255.12 184.77 255.10 C 184.74 259.89 184.75 264.69 184.77 269.49 C 172.18 269.56 159.59 269.46 147.00 269.54 C 145.34 269.52 143.62 269.53 142.00 269.15 C 141.45 264.52 141.85 259.76 141.75 255.10 Z" fill="#000000" />
<path d="M 184.77 255.10 C 189.54 255.07 194.31 255.07 199.07 255.04 C 199.07 259.87 198.96 264.70 198.86 269.53 C 194.16 269.51 189.47 269.51 184.77 269.57 L 184.77 269.49 C 184.75 264.69 184.74 259.89 184.77 255.10 Z" fill="#b9b9b9" />
<path d="M 199.07 255.04 C 203.74 254.93 208.41 254.94 213.08 255.04 C 213.52 264.54 212.82 274.01 213.53 283.48 C 208.64 283.64 203.76 283.64 198.86 283.56 C 198.81 278.89 198.79 274.21 198.86 269.53 C 198.96 264.70 199.07 259.87 199.07 255.04 Z" fill="#dcdcdc" />
<path d="M 241.87 255.06 C 251.34 255.10 261.01 254.33 270.41 255.59 C 270.41 260.19 270.41 264.79 270.39 269.39 C 260.95 269.04 251.45 268.95 242.01 269.34 C 241.58 264.53 241.54 259.87 241.87 255.06 Z" fill="#f3f3f3" />
<path d="M 313.25 255.33 C 317.67 254.59 322.42 255.00 326.88 255.15 C 327.14 259.80 327.15 264.37 326.91 269.01 C 322.26 269.32 317.71 269.33 313.06 269.03 C 312.93 264.53 312.53 259.78 313.25 255.33 Z" fill="#408186" />
<path d="M 327.56 255.07 C 341.80 255.14 356.03 255.09 370.26 255.10 C 370.29 259.86 370.29 264.63 370.28 269.39 C 356.03 269.43 341.79 269.41 327.54 269.40 C 327.52 264.63 327.52 259.85 327.56 255.07 Z" fill="#000000" />
<path d="M 125.98 269.34 C 126.35 274.17 126.35 278.83 125.98 283.66 C 121.79 283.71 117.61 283.66 113.43 283.54 C 113.12 278.86 112.94 274.22 113.51 269.55 C 117.62 269.22 121.85 269.30 125.98 269.34 Z" fill="#ededed" />
<path d="M 242.01 269.34 C 251.45 268.95 260.95 269.04 270.39 269.39 C 275.10 269.53 279.82 269.45 284.54 269.45 C 284.55 274.05 284.54 278.65 284.53 283.25 C 277.04 283.64 269.51 283.33 262.00 283.42 C 250.61 283.37 239.21 283.54 227.82 283.20 C 227.60 278.71 227.60 274.27 227.82 269.78 C 232.56 269.68 237.29 269.61 242.01 269.34 Z" fill="#ebebeb" />
<path d="M 127.51 269.49 C 132.20 269.62 137.05 269.12 141.69 269.83 C 141.90 274.40 141.71 278.98 141.80 283.56 C 137.04 283.54 132.27 283.54 127.50 283.55 C 127.52 278.86 127.52 274.18 127.51 269.49 Z" fill="#000000" />
<path d="M 184.77 269.57 C 189.47 269.51 194.16 269.51 198.86 269.53 C 198.79 274.21 198.81 278.89 198.86 283.56 C 194.16 283.53 189.45 283.56 184.74 283.53 C 184.77 278.88 184.75 274.22 184.77 269.57 Z" fill="#000000" />
<path d="M 313.21 269.58 C 317.97 269.47 322.74 269.46 327.51 269.49 C 327.51 274.17 327.51 278.85 327.52 283.53 C 322.75 283.55 317.98 283.55 313.20 283.45 C 313.29 278.82 313.29 274.20 313.21 269.58 Z" fill="#000000" />
<path d="M 370.44 269.51 C 375.22 269.50 380.00 269.50 384.78 269.60 C 384.71 274.22 384.71 278.83 384.79 283.45 C 380.01 283.55 375.22 283.55 370.44 283.53 C 370.44 278.86 370.44 274.19 370.44 269.51 Z" fill="#000000" />
<path d="M 28.23 283.85 C 32.88 283.86 37.53 283.86 42.18 283.85 C 42.08 288.58 42.10 293.31 42.11 298.04 C 42.27 312.30 41.85 326.55 41.88 340.80 C 41.93 345.23 41.77 349.67 41.97 354.09 C 41.47 352.77 41.02 351.44 40.93 350.02 C 40.55 342.45 41.72 334.61 40.73 327.08 C 36.88 325.97 32.36 326.94 28.31 326.32 C 28.24 312.16 28.35 298.00 28.23 283.85 Z" fill="#1f1f1f" />
<path d="M 470.21 283.86 C 475.07 283.84 479.94 283.85 484.81 283.84 C 484.66 307.48 484.72 331.13 484.78 354.77 C 479.91 354.70 475.04 354.69 470.17 354.77 C 470.49 331.15 470.51 307.47 470.21 283.86 Z" fill="#1a1a1a" />
<path d="M 42.11 298.04 C 46.77 298.12 51.43 298.13 56.09 298.10 C 56.18 312.27 55.90 326.48 56.31 340.64 C 61.11 340.71 65.91 340.79 70.71 340.97 C 70.49 350.41 71.06 359.84 70.66 369.28 L 70.17 369.28 C 70.50 364.50 70.52 359.82 70.26 355.04 C 65.58 355.06 60.90 355.00 56.22 354.84 C 56.13 350.18 56.08 345.53 56.04 340.88 C 51.32 340.78 46.60 340.76 41.88 340.80 C 41.85 326.55 42.27 312.30 42.11 298.04 Z" fill="#dcdcdc" />
<path d="M 213.39 298.28 C 217.51 297.61 221.92 297.95 226.09 298.05 C 226.36 302.77 226.36 307.40 226.09 312.12 C 221.78 312.31 217.52 312.28 213.21 312.02 C 213.16 307.48 212.79 302.79 213.39 298.28 Z" fill="#ededed" />
<path d="M 227.53 298.08 C 246.41 298.12 265.30 298.17 284.18 298.05 L 284.65 298.17 L 284.89 298.70 C 284.43 303.23 284.59 307.70 284.58 312.23 C 279.96 312.22 275.33 312.28 270.72 312.14 C 270.45 316.96 270.59 321.82 270.58 326.64 C 260.98 326.62 251.38 326.66 241.78 326.62 C 241.78 321.82 241.78 317.02 241.79 312.22 C 237.03 312.23 232.28 312.23 227.52 312.23 C 227.54 307.52 227.52 302.80 227.53 298.08 Z" fill="#000000" />
<path d="M 284.65 298.17 C 289.41 298.08 294.16 298.05 298.92 298.07 C 298.92 302.80 298.92 307.53 298.92 312.26 C 294.57 312.26 290.22 312.22 285.87 312.11 C 285.72 308.16 285.75 304.24 285.92 300.29 C 285.57 299.77 285.23 299.23 284.89 298.70 L 284.65 298.17 Z" fill="#ededed" />
<path d="M 227.52 312.23 C 232.28 312.23 237.03 312.23 241.79 312.22 C 241.78 317.02 241.78 321.82 241.78 326.62 C 237.28 326.52 232.70 326.92 228.23 326.42 C 227.84 325.95 227.62 325.45 227.57 324.90 C 227.16 320.72 227.55 316.44 227.52 312.23 Z" fill="#dcdcdc" />
<path d="M 284.58 312.23 C 284.59 316.88 284.61 321.52 284.65 326.17 C 280.26 326.59 275.96 326.63 271.57 326.37 C 271.48 321.50 271.79 316.94 270.72 312.14 C 275.33 312.28 279.96 312.22 284.58 312.23 Z" fill="#dcdcdc" />
<path d="M 28.31 326.32 C 32.36 326.94 36.88 325.97 40.73 327.08 C 41.72 334.61 40.55 342.45 40.93 350.02 C 41.02 351.44 41.47 352.77 41.97 354.09 L 42.25 354.80 C 37.59 354.61 32.91 354.66 28.25 354.74 C 28.32 345.27 28.37 335.79 28.31 326.32 Z" fill="#262626" />
<path d="M 241.76 327.46 C 251.32 327.22 260.92 327.38 270.49 327.38 C 270.55 331.93 270.53 336.48 270.48 341.03 C 260.92 340.90 251.34 340.93 241.78 341.01 C 241.75 336.49 241.73 331.98 241.76 327.46 Z" fill="#cacaca" />
<path d="M 41.88 340.80 C 46.60 340.76 51.32 340.78 56.04 340.88 C 56.08 345.53 56.13 350.18 56.22 354.84 C 60.90 355.00 65.58 355.06 70.26 355.04 C 70.52 359.82 70.50 364.50 70.17 369.28 C 65.53 369.28 60.90 369.22 56.25 369.51 L 56.24 369.05 C 56.05 364.42 56.13 359.79 56.10 355.14 C 51.52 355.11 46.79 355.34 42.25 354.80 L 41.97 354.09 C 41.77 349.67 41.93 345.23 41.88 340.80 Z" fill="#b9b9b9" />
<path d="M 241.78 341.01 C 251.34 340.93 260.92 340.90 270.48 341.03 C 270.46 345.71 270.49 350.40 270.52 355.08 C 260.94 355.21 251.35 355.10 241.77 355.15 C 241.73 350.43 241.78 345.72 241.78 341.01 Z" fill="#dcdcdc" />
<path d="M 42.25 354.80 C 46.79 355.34 51.52 355.11 56.10 355.14 C 56.13 359.79 56.05 364.42 56.24 369.05 C 51.61 369.08 46.98 369.06 42.36 369.07 C 42.38 364.32 42.49 359.54 42.25 354.80 Z" fill="#1f1f1f" />
<path d="M 213.31 355.21 C 222.76 354.65 232.30 354.94 241.77 355.15 C 241.79 359.88 241.77 364.61 241.80 369.34 C 232.31 369.32 222.81 369.35 213.31 369.33 C 213.34 374.14 213.32 378.95 213.34 383.77 C 203.82 383.73 194.30 383.75 184.79 383.75 C 184.77 378.93 184.77 374.10 184.80 369.27 C 194.17 368.97 203.53 369.54 212.87 368.88 C 213.18 364.32 213.16 359.76 213.31 355.21 Z" fill="#e5e5e5" />
<path d="M 241.77 355.15 C 251.35 355.10 260.94 355.21 270.52 355.08 C 270.56 359.82 270.55 364.57 270.54 369.31 C 280.06 369.28 289.58 369.33 299.10 369.29 C 299.10 374.11 299.11 378.93 299.09 383.75 C 308.57 383.75 318.06 383.73 327.54 383.76 C 327.54 388.43 327.54 393.09 327.54 397.76 C 322.77 397.73 317.99 397.74 313.22 397.74 C 313.22 402.53 313.22 407.32 313.23 412.10 C 313.23 416.87 313.22 421.64 313.23 426.41 C 308.51 426.42 303.80 426.42 299.08 426.42 C 299.11 431.19 299.11 435.96 299.10 440.72 C 294.25 440.74 289.40 440.72 284.55 440.77 C 284.55 445.54 284.55 450.32 284.54 455.09 C 265.53 455.13 246.51 455.16 227.50 455.07 C 227.47 450.29 227.51 445.52 227.54 440.75 C 232.28 440.75 237.03 440.74 241.77 440.76 C 251.35 440.78 260.94 440.78 270.52 440.76 C 275.20 440.74 279.87 440.74 284.55 440.76 C 284.54 435.99 284.53 431.21 284.56 426.43 C 289.42 426.48 294.27 426.49 299.12 426.34 C 299.10 416.87 299.11 407.40 299.11 397.94 C 299.12 393.22 299.12 388.51 299.06 383.80 C 289.58 383.68 280.08 383.68 270.61 383.80 C 270.53 379.01 270.51 374.21 270.51 369.41 C 261.02 369.17 251.51 369.36 242.01 369.27 C 241.69 374.11 241.64 378.91 241.89 383.76 C 232.64 383.80 223.37 383.53 214.13 383.91 L 213.42 383.94 C 213.36 398.12 213.10 412.31 213.43 426.48 C 218.14 426.45 222.86 426.47 227.58 426.44 C 227.46 431.21 227.68 436.01 227.44 440.79 C 222.73 440.71 218.02 440.73 213.31 440.76 C 213.33 436.45 213.32 432.13 213.32 427.82 L 213.33 426.45 C 208.50 426.46 203.67 426.47 198.84 426.44 C 198.85 421.68 198.85 416.91 198.85 412.15 C 198.85 407.35 198.85 402.55 198.85 397.74 C 194.17 397.74 189.49 397.74 184.81 397.75 C 184.77 393.08 184.78 388.42 184.79 383.75 C 194.30 383.75 203.82 383.73 213.34 383.77 C 213.32 378.95 213.34 374.14 213.31 369.33 C 222.81 369.35 232.31 369.32 241.80 369.34 C 241.77 364.61 241.79 359.88 241.77 355.15 Z" fill="#000000" />
<path d="M 271.75 355.03 C 280.82 354.90 289.90 354.84 298.97 355.08 C 299.16 359.47 299.18 363.84 299.03 368.23 C 289.94 368.62 280.80 368.52 271.71 368.30 C 271.47 363.85 271.48 359.48 271.75 355.03 Z" fill="#e5e5e5" />
<path d="M 456.07 355.21 C 460.78 355.09 465.47 355.26 470.17 354.77 C 470.02 359.49 470.09 364.23 470.05 368.96 C 465.35 369.18 460.61 368.86 455.93 369.25 C 455.43 373.94 455.75 378.73 455.75 383.44 C 451.01 383.40 446.29 383.46 441.55 383.34 C 441.85 378.65 441.82 373.95 441.80 369.25 C 446.52 369.33 450.96 369.73 455.64 368.77 C 456.09 364.24 455.77 359.74 456.07 355.21 Z" fill="#1f1f1f" />
<path d="M 70.17 369.28 L 70.66 369.28 C 70.56 373.98 70.45 378.72 70.80 383.41 C 65.99 383.41 61.17 383.39 56.36 383.46 C 56.38 378.82 56.45 374.15 56.25 369.51 C 60.90 369.22 65.53 369.28 70.17 369.28 Z" fill="#1f1f1f" />
<path d="M 71.94 369.18 C 76.19 369.08 80.41 369.13 84.66 369.35 C 84.90 374.03 84.84 378.60 84.47 383.27 C 88.93 383.76 93.45 383.48 97.89 384.08 C 98.50 384.46 98.87 385.11 98.97 386.01 C 99.41 389.87 98.92 393.87 98.89 397.76 C 94.26 397.77 89.58 397.87 84.97 397.62 L 84.52 397.60 C 84.73 392.97 84.67 388.37 84.66 383.74 C 80.05 383.71 75.43 383.79 70.82 383.73 L 70.80 383.41 C 72.24 378.67 71.73 374.16 71.94 369.18 Z" fill="#dcdcdc" />
<path d="M 156.35 369.35 C 160.96 369.19 165.59 369.33 170.21 369.30 C 170.32 374.12 170.33 378.93 170.28 383.74 C 165.61 383.75 160.95 383.75 156.29 383.76 C 156.32 378.96 156.18 374.15 156.35 369.35 Z" fill="#979797" />
<path d="M 170.21 369.30 C 175.07 369.29 179.94 369.32 184.80 369.27 C 184.77 374.10 184.77 378.93 184.79 383.75 C 179.95 383.75 175.11 383.74 170.28 383.74 C 170.33 378.93 170.32 374.12 170.21 369.30 Z" fill="#4f4f4f" />
<path d="M 270.51 369.41 C 270.51 374.21 270.53 379.01 270.61 383.80 C 261.04 383.87 251.45 383.86 241.89 383.76 C 241.64 378.91 241.69 374.11 242.01 369.27 C 251.51 369.36 261.02 369.17 270.51 369.41 Z" fill="#6b010f" />
<path d="M 299.10 369.29 C 308.58 369.12 318.07 369.13 327.55 369.26 C 327.52 374.09 327.53 378.93 327.54 383.76 C 318.06 383.73 308.57 383.75 299.09 383.75 C 299.11 378.93 299.10 374.11 299.10 369.29 Z" fill="#e5e5e5" />
<path d="M 327.55 369.26 C 332.32 369.32 337.10 369.29 341.87 369.30 C 341.79 374.12 341.77 378.93 341.80 383.75 C 337.05 383.74 332.30 383.74 327.54 383.76 C 327.53 378.93 327.52 374.09 327.55 369.26 Z" fill="#4f4f4f" />
<path d="M 341.87 369.30 C 346.60 369.30 351.33 369.29 356.06 369.30 C 356.18 374.12 356.18 378.93 356.06 383.75 C 351.31 383.75 346.55 383.75 341.80 383.75 C 341.77 378.93 341.79 374.12 341.87 369.30 Z" fill="#979797" />
<path d="M 428.25 369.46 C 432.67 368.76 437.33 369.22 441.80 369.25 C 441.82 373.95 441.85 378.65 441.55 383.34 L 441.53 383.86 C 436.96 383.77 432.38 383.76 427.81 383.80 C 427.35 380.20 426.90 376.60 427.12 372.97 C 427.31 371.67 427.06 370.30 428.25 369.46 Z" fill="#408186" />
<path d="M 413.44 369.73 C 413.31 374.43 413.39 379.13 413.28 383.84 C 413.13 388.33 413.18 392.78 413.48 397.27 C 408.62 397.82 403.76 397.87 398.88 397.86 C 398.73 402.67 398.72 407.47 398.78 412.29 C 394.12 412.26 389.47 412.24 384.82 412.28 C 384.66 407.47 384.67 402.68 384.87 397.87 C 389.45 397.76 394.02 397.68 398.60 397.60 C 398.94 388.65 398.51 379.71 398.84 370.76 C 403.81 370.65 408.55 370.86 413.44 369.73 Z" fill="#ededed" />
<path d="M 70.82 383.73 C 75.43 383.79 80.05 383.71 84.66 383.74 C 84.67 388.37 84.73 392.97 84.52 397.60 C 79.98 397.34 75.39 397.43 70.84 397.47 C 70.84 392.89 70.91 388.31 70.82 383.73 Z" fill="#1f1f1f" />
<path d="M 170.28 383.74 C 175.11 383.74 179.95 383.75 184.79 383.75 C 184.78 388.42 184.77 393.08 184.81 397.75 C 189.49 397.74 194.17 397.74 198.85 397.74 C 198.85 402.55 198.85 407.35 198.85 412.15 C 194.17 412.36 189.52 412.38 184.84 412.22 C 184.78 407.51 184.75 402.79 184.72 398.08 C 179.90 397.77 175.09 397.75 170.26 397.91 C 170.29 393.19 170.26 388.47 170.28 383.74 Z" fill="#b9b9b9" />
<path d="M 214.13 383.91 C 223.37 383.53 232.64 383.80 241.89 383.76 C 242.24 388.25 242.24 392.72 242.03 397.21 C 237.36 397.75 232.69 397.81 228.00 397.83 C 223.75 397.84 219.31 398.30 215.09 397.72 C 214.67 397.16 214.43 396.57 214.39 395.94 C 214.04 391.94 214.05 387.93 213.42 383.94 L 214.13 383.91 Z" fill="#91021b" />
<path d="M 241.89 383.76 C 251.45 383.86 261.04 383.87 270.61 383.80 C 270.27 388.37 270.18 392.92 270.49 397.48 C 280.02 397.86 289.57 397.87 299.11 397.94 C 299.11 407.40 299.10 416.87 299.12 426.34 C 294.27 426.49 289.42 426.48 284.56 426.43 L 284.21 426.43 C 284.44 421.61 284.35 416.80 284.07 411.99 C 279.48 411.88 274.89 411.82 270.30 411.80 C 270.32 407.23 270.26 402.66 270.12 398.09 C 265.43 398.04 260.75 398.04 256.06 397.98 C 251.26 397.92 246.44 397.74 241.64 397.88 C 240.66 402.49 241.09 407.60 240.99 412.36 C 236.60 411.85 232.34 411.73 227.93 411.96 C 227.64 416.82 227.65 421.58 227.97 426.44 L 227.58 426.44 C 222.86 426.47 218.14 426.45 213.43 426.48 C 213.10 412.31 213.36 398.12 213.42 383.94 C 214.05 387.93 214.04 391.94 214.39 395.94 C 214.43 396.57 214.67 397.16 215.09 397.72 C 219.31 398.30 223.75 397.84 228.00 397.83 C 232.69 397.81 237.36 397.75 242.03 397.21 C 242.24 392.72 242.24 388.25 241.89 383.76 Z" fill="#a30422" />
<path d="M 270.61 383.80 C 280.08 383.68 289.58 383.68 299.06 383.80 C 299.12 388.51 299.12 393.22 299.11 397.94 C 289.57 397.87 280.02 397.86 270.49 397.48 C 270.18 392.92 270.27 388.37 270.61 383.80 Z" fill="#8e041d" />
<path d="M 327.54 383.76 C 332.30 383.74 337.05 383.74 341.80 383.75 C 341.81 388.47 341.79 393.19 341.82 397.91 C 337.36 397.83 332.59 397.44 328.20 398.27 C 326.98 402.61 327.70 407.60 327.67 412.08 C 322.84 412.41 318.06 412.39 313.23 412.10 C 313.22 407.32 313.22 402.53 313.22 397.74 C 317.99 397.74 322.77 397.73 327.54 397.76 C 327.54 393.09 327.54 388.43 327.54 383.76 Z" fill="#b8b8b8" />
<path d="M 413.28 383.84 C 418.00 383.82 422.71 383.82 427.42 383.80 C 427.43 388.40 427.36 392.99 427.58 397.59 L 427.08 397.62 C 422.51 397.86 417.88 397.76 413.28 397.80 C 413.30 402.62 413.38 407.34 413.16 412.14 C 408.35 412.38 403.59 412.30 398.78 412.29 C 398.72 407.47 398.73 402.67 398.88 397.86 C 403.76 397.87 408.62 397.82 413.48 397.27 C 413.18 392.78 413.13 388.33 413.28 383.84 Z" fill="#dcdcdc" />
<path d="M 427.42 383.80 L 427.81 383.80 C 432.38 383.76 436.96 383.77 441.53 383.86 C 441.36 388.39 441.44 392.94 441.47 397.47 C 436.85 397.44 432.19 397.34 427.58 397.59 C 427.36 392.99 427.43 388.40 427.42 383.80 Z" fill="#1f1f1f" />
<path d="M 84.97 397.62 C 89.58 397.87 94.26 397.77 98.89 397.76 C 99.19 402.52 99.03 407.28 99.26 412.03 C 94.52 412.07 89.79 412.11 85.05 411.93 C 84.88 407.16 84.91 402.40 84.97 397.62 Z" fill="#2a2a2a" />
<path d="M 98.89 397.76 C 103.68 397.77 108.46 397.80 113.25 397.79 C 113.54 402.41 112.64 407.61 113.92 412.05 C 118.45 412.52 123.07 412.20 127.62 412.26 C 127.64 416.98 127.64 421.71 127.63 426.43 C 123.00 426.45 118.39 426.50 113.77 426.26 L 113.27 426.23 C 113.37 421.58 113.36 416.93 113.25 412.27 C 108.59 412.26 103.94 412.22 99.28 412.53 L 99.26 412.03 C 99.03 407.28 99.19 402.52 98.89 397.76 Z" fill="#b9b9b9" />
<path d="M 113.25 397.79 L 113.67 397.79 C 118.40 397.73 123.13 397.79 127.87 397.78 C 127.71 401.80 127.29 406.01 127.87 410.00 C 127.92 410.85 128.36 411.46 129.16 411.81 C 133.27 412.47 137.56 412.15 141.71 412.31 C 141.97 417.03 142.02 421.70 141.84 426.43 C 137.10 426.44 132.36 426.44 127.63 426.43 C 127.64 421.71 127.64 416.98 127.62 412.26 C 123.07 412.20 118.45 412.52 113.92 412.05 C 112.64 407.61 113.54 402.41 113.25 397.79 Z" fill="#dcdcdc" />
<path d="M 127.87 397.78 C 132.54 397.70 137.20 397.67 141.87 397.92 C 141.93 402.63 141.97 407.35 142.00 412.07 C 146.70 412.15 151.39 412.18 156.09 412.20 C 156.33 416.94 156.32 421.67 156.25 426.41 C 151.44 426.39 146.64 426.42 141.84 426.43 C 142.02 421.70 141.97 417.03 141.71 412.31 C 137.56 412.15 133.27 412.47 129.16 411.81 C 128.36 411.46 127.92 410.85 127.87 410.00 C 127.29 406.01 127.71 401.80 127.87 397.78 Z" fill="#ededed" />
<path d="M 170.26 397.91 C 175.09 397.75 179.90 397.77 184.72 398.08 C 184.75 402.79 184.78 407.51 184.84 412.22 C 189.52 412.38 194.17 412.36 198.85 412.15 C 198.85 416.91 198.85 421.68 198.84 426.44 C 194.16 426.42 189.48 426.34 184.80 426.20 C 184.78 421.59 184.74 416.99 184.65 412.38 C 179.84 412.41 175.03 412.35 170.22 412.13 C 170.19 407.39 170.22 402.65 170.26 397.91 Z" fill="#dcdcdc" />
<path d="M 241.64 397.88 C 241.97 402.63 241.93 407.39 241.87 412.15 C 241.78 416.82 241.80 421.47 241.97 426.14 C 246.67 426.49 251.30 426.52 256.01 426.29 C 256.10 421.58 256.06 416.87 255.99 412.15 C 255.97 407.43 256.06 402.71 256.06 397.98 C 260.75 398.04 265.43 398.04 270.12 398.09 C 270.26 402.66 270.32 407.23 270.30 411.80 C 274.89 411.82 279.48 411.88 284.07 411.99 C 284.35 416.80 284.44 421.61 284.21 426.43 C 279.64 426.45 275.07 426.46 270.51 426.45 C 270.54 431.22 270.53 435.99 270.52 440.76 C 260.94 440.78 251.35 440.78 241.77 440.76 C 241.74 435.98 241.74 431.21 241.77 426.43 C 237.17 426.47 232.57 426.43 227.97 426.44 C 227.65 421.58 227.64 416.82 227.93 411.96 C 232.34 411.73 236.60 411.85 240.99 412.36 C 241.09 407.60 240.66 402.49 241.64 397.88 Z" fill="#b6082a" />
<path d="M 241.64 397.88 C 246.44 397.74 251.26 397.92 256.06 397.98 C 256.06 402.71 255.97 407.43 255.99 412.15 C 251.27 412.32 246.58 412.32 241.87 412.15 C 241.93 407.39 241.97 402.63 241.64 397.88 Z" fill="#cb2042" />
<path d="M 341.82 397.91 C 341.87 402.66 341.89 407.41 341.84 412.16 C 337.09 412.30 332.34 412.39 327.59 412.52 C 327.31 417.03 327.20 421.55 327.14 426.08 C 322.55 426.14 317.97 426.22 313.38 426.45 C 313.21 431.01 313.15 435.57 313.16 440.13 L 313.16 440.91 C 313.16 445.65 313.14 450.38 313.13 455.12 C 308.43 455.10 303.73 455.14 299.03 455.10 C 294.20 455.00 289.37 454.99 284.54 455.09 C 284.55 450.32 284.55 445.54 284.55 440.77 C 289.40 440.72 294.25 440.74 299.10 440.72 C 299.11 435.96 299.11 431.19 299.08 426.42 C 303.80 426.42 308.51 426.42 313.23 426.41 C 313.22 421.64 313.23 416.87 313.23 412.10 C 318.06 412.39 322.84 412.41 327.67 412.08 C 327.70 407.60 326.98 402.61 328.20 398.27 C 332.59 397.44 337.36 397.83 341.82 397.91 Z" fill="#dcdcdc" />
<path d="M 413.28 397.80 C 417.88 397.76 422.51 397.86 427.08 397.62 C 427.15 402.38 427.12 407.14 427.11 411.91 C 422.46 412.12 417.81 412.01 413.16 412.14 C 413.38 407.34 413.30 402.62 413.28 397.80 Z" fill="#2a2a2a" />
<path d="M 113.25 412.27 C 113.36 416.93 113.37 421.58 113.27 426.23 C 108.67 426.03 104.03 426.12 99.42 426.12 C 99.46 421.57 99.53 417.07 99.28 412.53 C 103.94 412.22 108.59 412.26 113.25 412.27 Z" fill="#373737" />
<path d="M 241.87 412.15 C 246.58 412.32 251.27 412.32 255.99 412.15 C 256.06 416.87 256.10 421.58 256.01 426.29 C 251.30 426.52 246.67 426.49 241.97 426.14 C 241.80 421.47 241.78 416.82 241.87 412.15 Z" fill="#df3b5d" />
<path d="M 356.17 412.31 C 365.47 412.03 374.84 412.03 384.14 412.29 C 379.50 412.47 374.86 412.68 370.21 412.83 C 370.05 417.39 370.16 421.90 370.70 426.44 L 370.24 426.44 C 365.58 426.46 360.90 426.30 356.24 426.48 C 356.02 431.24 356.14 436.01 356.01 440.78 C 351.27 440.76 346.53 440.76 341.79 440.76 C 337.06 440.76 332.33 440.75 327.60 440.80 C 322.78 440.84 317.97 440.84 313.16 440.91 L 313.16 440.13 C 317.99 440.44 322.75 440.46 327.57 440.10 C 327.62 435.74 327.64 431.38 327.61 427.02 C 322.87 426.83 318.12 426.71 313.38 426.45 C 317.97 426.22 322.55 426.14 327.14 426.08 C 327.20 421.55 327.31 417.03 327.59 412.52 C 327.78 417.05 327.87 421.58 327.99 426.12 C 335.00 426.48 341.99 426.29 349.00 426.39 C 351.05 426.29 353.65 426.53 355.50 425.54 C 356.30 421.24 355.82 416.68 356.17 412.31 Z" fill="#ededed" />
<path d="M 384.14 412.29 L 384.82 412.28 C 384.77 417.00 384.76 421.71 384.76 426.43 C 380.07 426.44 375.39 426.45 370.70 426.44 C 370.16 421.90 370.05 417.39 370.21 412.83 C 374.86 412.68 379.50 412.47 384.14 412.29 Z" fill="#dbdbdb" />
<path d="M 384.82 412.28 C 389.47 412.24 394.12 412.26 398.78 412.29 C 398.76 416.93 398.75 421.58 398.82 426.23 L 398.31 426.25 C 393.79 426.50 389.28 426.45 384.76 426.43 C 384.76 421.71 384.77 417.00 384.82 412.28 Z" fill="#b9b9b9" />
<path d="M 398.78 412.29 C 403.59 412.30 408.35 412.38 413.16 412.14 C 412.99 416.79 413.11 421.43 412.90 426.08 C 408.21 426.13 403.50 426.04 398.82 426.23 C 398.75 421.58 398.76 416.93 398.78 412.29 Z" fill="#373737" />
<path d="M 113.77 426.26 C 118.39 426.50 123.00 426.45 127.63 426.43 C 127.49 431.07 127.40 435.71 127.33 440.35 C 122.78 440.39 118.23 440.36 113.69 440.41 C 113.72 435.69 113.67 430.97 113.77 426.26 Z" fill="#373737" />
<path d="M 127.63 426.43 C 132.36 426.44 137.10 426.44 141.84 426.43 C 141.76 431.05 141.76 435.66 141.91 440.28 C 137.05 440.34 132.19 440.30 127.33 440.35 C 127.40 435.71 127.49 431.07 127.63 426.43 Z" fill="#4f4f4f" />
<path d="M 141.84 426.43 C 146.64 426.42 151.44 426.39 156.25 426.41 C 156.19 431.03 156.33 435.65 156.23 440.26 C 170.46 440.78 184.70 440.78 198.93 440.96 C 199.07 445.69 199.04 450.41 198.89 455.15 C 189.55 455.29 180.21 455.05 170.87 455.09 C 170.83 459.76 170.81 464.42 170.64 469.08 C 170.43 464.22 170.34 459.36 170.30 454.50 C 170.29 449.95 170.33 445.40 170.31 440.85 C 165.61 440.85 160.92 440.90 156.24 440.83 C 151.46 440.74 146.69 440.74 141.92 440.80 L 141.91 440.28 C 141.76 435.66 141.76 431.05 141.84 426.43 Z" fill="#b9b9b9" />
<path d="M 156.25 426.41 L 156.84 426.39 C 166.19 427.06 175.52 426.38 184.87 426.89 C 184.93 431.33 184.97 435.77 185.00 440.21 C 189.65 440.52 194.17 440.52 198.82 440.17 C 198.85 436.05 198.90 431.93 198.98 427.81 C 203.78 427.54 208.52 427.55 213.32 427.82 C 213.32 432.13 213.33 436.45 213.31 440.76 C 218.02 440.73 222.73 440.71 227.44 440.79 C 227.13 445.54 226.92 450.29 226.81 455.06 C 222.32 454.96 217.84 454.96 213.35 455.09 C 208.53 455.16 203.71 455.08 198.89 455.15 C 199.04 450.41 199.07 445.69 198.93 440.96 C 184.70 440.78 170.46 440.78 156.23 440.26 C 156.33 435.65 156.19 431.03 156.25 426.41 Z" fill="#dcdcdc" />
<path d="M 156.84 426.39 C 166.15 425.97 175.49 426.16 184.80 426.20 C 189.48 426.34 194.16 426.42 198.84 426.44 C 203.67 426.47 208.50 426.46 213.33 426.45 L 213.32 427.82 C 208.52 427.55 203.78 427.54 198.98 427.81 C 198.90 431.93 198.85 436.05 198.82 440.17 C 194.17 440.52 189.65 440.52 185.00 440.21 C 184.97 435.77 184.93 431.33 184.87 426.89 C 175.52 426.38 166.19 427.06 156.84 426.39 Z" fill="#ededed" />
<path d="M 227.58 426.44 L 227.97 426.44 C 232.57 426.43 237.17 426.47 241.77 426.43 C 241.74 431.21 241.74 435.98 241.77 440.76 C 237.03 440.74 232.28 440.75 227.54 440.75 C 227.51 445.52 227.47 450.29 227.50 455.07 L 226.81 455.06 C 226.92 450.29 227.13 445.54 227.44 440.79 C 227.68 436.01 227.46 431.21 227.58 426.44 Z" fill="#fefefe" />
<path d="M 284.21 426.43 L 284.56 426.43 C 284.53 431.21 284.54 435.99 284.55 440.76 C 279.87 440.74 275.20 440.74 270.52 440.76 C 270.53 435.99 270.54 431.22 270.51 426.45 C 275.07 426.46 279.64 426.45 284.21 426.43 Z" fill="#fefefe" />
<path d="M 356.24 426.48 C 360.90 426.30 365.58 426.46 370.24 426.44 C 370.34 431.05 370.36 435.66 370.16 440.27 L 370.14 440.81 C 365.43 440.75 360.72 440.76 356.01 440.78 C 356.14 436.01 356.02 431.24 356.24 426.48 Z" fill="#b8b8b8" />
<path d="M 370.24 426.44 L 370.70 426.44 C 375.39 426.45 380.07 426.44 384.76 426.43 C 384.73 431.07 384.78 435.71 384.83 440.35 C 379.94 440.30 375.05 440.34 370.16 440.27 C 370.36 435.66 370.34 431.05 370.24 426.44 Z" fill="#4f4f4f" />
<path d="M 384.76 426.43 C 389.28 426.45 393.79 426.50 398.31 426.25 C 398.42 430.97 398.37 435.69 398.41 440.41 C 393.88 440.36 389.36 440.39 384.83 440.35 C 384.78 435.71 384.73 431.07 384.76 426.43 Z" fill="#373737" />
<path d="M 313.38 426.45 C 318.12 426.71 322.87 426.83 327.61 427.02 C 327.64 431.38 327.62 435.74 327.57 440.10 C 322.75 440.46 317.99 440.44 313.16 440.13 C 313.15 435.57 313.21 431.01 313.38 426.45 Z" fill="#ffffff" />
<path d="M 141.92 440.80 C 146.69 440.74 151.46 440.74 156.24 440.83 C 156.35 445.41 156.34 449.98 156.17 454.57 C 151.45 454.63 146.72 454.60 142.00 454.61 C 141.97 450.01 142.03 445.40 141.92 440.80 Z" fill="#373737" />
<path d="M 156.24 440.83 C 160.92 440.90 165.61 440.85 170.31 440.85 C 170.33 445.40 170.29 449.95 170.30 454.50 C 165.59 454.52 160.88 454.48 156.17 454.57 C 156.34 449.98 156.35 445.41 156.24 440.83 Z" fill="#505050" />
<path d="M 313.16 440.91 C 317.97 440.84 322.78 440.84 327.60 440.80 C 327.48 445.56 327.50 450.30 327.66 455.06 C 322.81 455.12 317.97 455.16 313.13 455.12 C 313.14 450.38 313.16 445.65 313.16 440.91 Z" fill="#b9b9b9" />
<path d="M 327.60 440.80 C 332.33 440.75 337.06 440.76 341.79 440.76 C 341.84 445.31 341.80 449.84 341.51 454.38 L 341.49 455.01 C 336.88 455.08 332.27 455.04 327.66 455.06 C 327.50 450.30 327.48 445.56 327.60 440.80 Z" fill="#838383" />
<path d="M 341.79 440.76 C 346.53 440.76 351.27 440.76 356.01 440.78 C 355.96 445.37 355.92 449.96 355.80 454.56 C 351.04 454.49 346.28 454.57 341.51 454.38 C 341.80 449.84 341.84 445.31 341.79 440.76 Z" fill="#505050" />
<path d="M 356.01 440.78 C 360.72 440.76 365.43 440.75 370.14 440.81 C 369.99 445.41 370.05 450.02 370.06 454.63 C 365.31 454.60 360.56 454.63 355.80 454.56 C 355.92 449.96 355.96 445.37 356.01 440.78 Z" fill="#373737" />
<path d="M 170.87 455.09 C 180.21 455.05 189.55 455.29 198.89 455.15 L 198.91 456.10 C 194.35 456.11 189.76 456.00 185.21 456.28 C 184.80 460.55 184.89 464.79 185.00 469.06 C 180.21 469.07 175.43 469.06 170.64 469.08 C 170.81 464.42 170.83 459.76 170.87 455.09 Z" fill="#2a2a2a" />
<path d="M 198.89 455.15 C 203.71 455.08 208.53 455.16 213.35 455.09 C 213.22 459.77 213.35 464.45 213.26 469.13 C 208.55 468.99 203.80 469.05 199.08 469.05 C 199.05 464.74 198.98 460.42 198.91 456.10 L 198.89 455.15 Z" fill="#505050" />
<path d="M 213.35 455.09 C 217.84 454.96 222.32 454.96 226.81 455.06 L 227.50 455.07 C 246.51 455.16 265.53 455.13 284.54 455.09 C 289.37 454.99 294.20 455.00 299.03 455.10 C 299.13 459.75 299.17 464.39 298.84 469.03 L 298.81 469.52 L 298.11 469.51 C 290.73 469.09 283.39 469.36 276.00 469.31 C 255.24 469.32 234.46 469.46 213.71 469.15 L 213.26 469.13 C 213.35 464.45 213.22 459.77 213.35 455.09 Z" fill="#b9b9b9" />
<path d="M 299.03 455.10 C 303.73 455.14 308.43 455.10 313.13 455.12 C 313.21 459.77 313.19 464.40 313.07 469.05 C 308.32 469.04 303.58 469.06 298.84 469.03 C 299.17 464.39 299.13 459.75 299.03 455.10 Z" fill="#505050" />
<path d="M 313.13 455.12 C 317.97 455.16 322.81 455.12 327.66 455.06 C 332.27 455.04 336.88 455.08 341.49 455.01 C 341.35 459.69 341.43 464.38 341.43 469.06 C 331.97 469.06 322.52 469.07 313.07 469.05 C 313.19 464.40 313.21 459.77 313.13 455.12 Z" fill="#353535" />
<path d="M 185.21 456.28 C 189.76 456.00 194.35 456.11 198.91 456.10 C 198.98 460.42 199.05 464.74 199.08 469.05 C 194.39 469.07 189.69 469.06 185.00 469.06 C 184.89 464.79 184.80 460.55 185.21 456.28 Z" fill="#373737" />
<path d="M 213.71 469.15 C 234.46 469.46 255.24 469.32 276.00 469.31 C 283.39 469.36 290.73 469.09 298.11 469.51 C 293.55 469.57 288.97 469.62 284.42 469.94 C 284.58 474.53 284.72 479.07 284.18 483.65 C 265.45 483.57 246.72 483.57 227.98 483.65 C 227.90 479.05 227.81 474.45 227.70 469.86 C 223.01 469.61 218.38 469.62 213.70 469.86 L 213.71 469.15 Z" fill="#393939" />
<path d="M 213.70 469.86 C 218.38 469.62 223.01 469.61 227.70 469.86 C 227.81 474.45 227.90 479.05 227.98 483.65 C 223.20 483.69 218.42 483.64 213.64 483.73 C 213.68 479.10 213.64 474.48 213.70 469.86 Z" fill="#2a2a2a" />
<path d="M 284.42 469.94 C 288.97 469.62 293.55 469.57 298.11 469.51 L 298.81 469.52 C 298.57 474.25 298.65 479.00 298.74 483.73 C 293.88 483.64 289.03 483.69 284.18 483.65 C 284.72 479.07 284.58 474.53 284.42 469.94 Z" fill="#2a2a2a" />
</svg>